<?xml version="1.0" encoding="UTF-8" standalone="no"?>
<svg
   version="1.1"
   width="1024"
   height="1024"
   id="svg306"
   sodipodi:docname="logo.svg"
   inkscape:export-filename="_257ea42e-4c18-49ed-a9ee-179d19e1a5da.png"
   inkscape:export-xdpi="96"
   inkscape:export-ydpi="96"
   inkscape:version="1.3 (0e150ed6c4, 2023-07-21)"
   xmlns:inkscape="http://www.inkscape.org/namespaces/inkscape"
   xmlns:sodipodi="http://sodipodi.sourceforge.net/DTD/sodipodi-0.dtd"
   xmlns="http://www.w3.org/2000/svg"
   xmlns:svg="http://www.w3.org/2000/svg">
  <defs
     id="defs306" />
  <sodipodi:namedview
     id="namedview306"
     pagecolor="#58b958"
     bordercolor="#000000"
     borderopacity="0.25"
     inkscape:showpageshadow="2"
     inkscape:pageopacity="0.0"
     inkscape:pagecheckerboard="0"
     inkscape:deskcolor="#d1d1d1"
     inkscape:zoom="0.76855469"
     inkscape:cx="547.13088"
     inkscape:cy="544.52859"
     inkscape:window-width="1920"
     inkscape:window-height="1001"
     inkscape:window-x="-9"
     inkscape:window-y="-9"
     inkscape:window-maximized="1"
     inkscape:current-layer="svg306" />
  <path
     d="m 0,0 c 3.2351003,6.6991461 4.8808062,13.744671 6.6875,20.9375 0.320332,1.256191 0.6406641,2.512383 0.9707031,3.806641 C 8.4438706,27.828178 9.2243022,30.913442 10,34 c 4.799576,1.129109 9.601022,2.249768 14.404297,3.363037 1.629757,0.378935 3.259003,0.760072 4.887695,1.143555 C 42.004837,41.953828 42.004837,41.953828 55,43 c 2.355056,-1.665771 3.32368,-2.759961 5,-5 1.409359,-1.54835 2.826921,-3.08925 4.25,-4.625 4.130025,-4.592753 7.998606,-9.35933 11.804687,-14.222656 C 78,17 78,17 81,16 c 2.664127,0.907954 5.174444,1.883964 7.75,3 0.755713,0.320332 1.511426,0.640664 2.290039,0.970703 6.786094,2.900623 13.517761,5.913106 20.150391,9.149902 1.23112,0.598284 2.46635,1.188158 3.70508,1.770508 1.83844,0.868023 3.65969,1.76503 5.47949,2.671387 1.05961,0.516914 2.11922,1.033828 3.21094,1.566406 C 126,37 126,37 126.87891,39.910156 c 0.10796,2.754796 0.0366,5.236654 -0.31641,7.964844 -0.46854,4.810745 -0.86753,9.608213 -1.0625,14.4375 -0.0722,1.316133 -0.14437,2.632266 -0.21875,3.988281 0.86875,4.471215 2.1263,5.680863 5.65918,8.343018 3.37808,2.224426 6.85257,4.169102 10.43457,6.043701 6.35924,3.42755 12.51789,7.04306 18.5625,11 0.70262,0.458101 1.40524,0.916201 2.12915,1.388184 3.12455,2.047589 6.22762,4.120348 9.30054,6.244628 0.97195,0.657422 1.9439,1.314848 2.94531,1.992188 0.82113,0.57363 1.64227,1.14727 2.48828,1.73828 2.1472,1.2116 2.1472,1.2116 4.24609,0.30078 2.00683,-1.38872 3.97049,-2.78169 5.89063,-4.28906 1.16402,-0.910723 1.16402,-0.910723 2.35156,-1.839844 2.05757,-1.686972 4.05823,-3.39895 6.04688,-5.164062 0.575,-0.504749 1.15,-1.009497 1.74243,-1.529541 1.14438,-1.009043 2.27929,-2.028934 3.40381,-3.060059 3.97898,-3.498079 3.97898,-3.498079 6.40844,-3.366943 2.87852,1.225367 4.5705,2.987579 6.77735,5.202636 0.89396,0.89461 1.78793,1.789219 2.70898,2.710938 0.69428,0.706729 0.69428,0.706729 1.40259,1.427734 1.37733,1.400494 2.76849,2.787341 4.15991,4.173828 5.33438,5.376383 10.27974,10.923483 15.00513,16.841063 1.80033,2.2263 3.66061,4.35075 5.58667,6.46753 4.47725,5.07309 8.20038,10.65371 11.96875,16.26172 0.73992,1.0667 1.47984,2.1334 2.24219,3.23242 0.69351,1.03061 1.38703,2.06121 2.10156,3.12305 0.631,0.92837 1.26199,1.85673 1.91211,2.81323 C 262,149 262,149 261.84717,151.65527 c -1.26002,3.48738 -3.67348,5.80952 -6.22217,8.40723 -1.88729,1.96838 -3.75914,3.94853 -5.625,5.9375 -0.63164,0.63809 -1.26328,1.27617 -1.91406,1.93359 -1.73589,3.30318 -1.00604,5.5261 -0.0859,9.06641 1.81473,3.31488 1.81473,3.31488 4.1875,6.4375 0.40348,0.55913 0.80695,1.11826 1.22266,1.69434 1.18318,1.63253 2.38617,3.25067 3.58984,4.86816 0.6252,0.85207 1.25039,1.70414 1.89453,2.58203 2.3979,3.33905 2.3979,3.33905 5.10547,6.41797 6.28712,0.53309 11.58819,-1.10022 17.5625,-2.9375 11.14889,-3.36733 11.14889,-3.36733 16.4375,-4.0625 4.47505,6.3275 8.08396,12.80296 11.375,19.8125 0.47188,0.99612 0.94375,1.99225 1.42993,3.01855 4.15955,8.88705 7.9043,17.91017 11.39771,27.07764 0.7138,1.87215 1.44396,3.73804 2.17627,5.60303 3.38193,8.82602 3.38193,8.82602 2.62109,12.48828 -2.28239,1.89287 -4.36217,3.35663 -6.875,4.875 -0.67805,0.4378 -1.35609,0.8756 -2.05469,1.32666 -3.0607,1.97308 -6.13156,3.83183 -9.32812,5.57959 -2.71293,1.57674 -4.66033,2.87499 -6.74219,5.21875 -0.86229,8.03675 1.9211,16.63642 3.875,24.375 2.86646,11.80681 4.74703,23.56175 6.125,35.625 3.59042,0.81374 6.95481,1.14366 10.63281,1.21094 1.05317,0.0284 2.10633,0.0567 3.19141,0.0859 2.20816,0.0523 4.41652,0.0965 6.625,0.13282 1.05058,0.0309 2.10117,0.0619 3.18359,0.0937 0.95794,0.0198 1.91587,0.0396 2.90283,0.0601 C 341,339 341,339 342.79297,340.14331 c 1.74618,2.68603 1.72732,4.84489 1.88672,8.04028 0.033,0.64634 0.066,1.29268 0.10006,1.95861 0.4108,9.23421 0.36911,18.48698 0.35062,27.72816 -0.005,3.18975 -2e-5,6.37935 0.006,9.56909 0.0103,27.99175 0.0103,27.99175 -2.13672,35.56055 -0.79696,0.0501 -1.59393,0.10022 -2.41504,0.15186 -3.61229,0.23215 -7.22356,0.47749 -10.83496,0.72314 -1.25426,0.0786 -2.50852,0.15727 -3.80078,0.23828 -1.80791,0.12568 -1.80791,0.12568 -3.65235,0.25391 -1.1102,0.0733 -2.22041,0.14663 -3.36425,0.22217 -3.75535,0.52168 -3.75535,0.52168 -6.93262,2.41064 -0.9205,2.46768 -0.9205,2.46768 -1.27344,5.44141 -0.18216,1.12978 -0.36432,2.25956 -0.552,3.42358 -0.27203,1.83027 -0.27203,1.83027 -0.54956,3.69751 -1.77664,10.98899 -3.98167,21.7449 -6.74561,32.52759 -0.24508,0.96929 -0.49016,1.93859 -0.74267,2.93725 -0.21954,0.84297 -0.43909,1.68594 -0.66528,2.55445 -0.50729,2.60213 -0.75673,4.77725 -0.47144,7.41821 3.7754,3.45409 7.85519,5.9358 12.28125,8.46484 0.76321,0.43804 1.52641,0.87608 2.31274,1.3274 1.55127,0.88221 3.11037,1.75081 4.67725,2.60498 1.08583,0.61162 1.08583,0.61162 2.1936,1.23559 0.98408,0.53972 0.98408,0.53972 1.98804,1.09033 C 326,501 326,501 326.83447,502.80444 c 0.22383,2.96889 -0.57045,4.91865 -1.65088,7.69165 -0.64183,1.65383 -0.64183,1.65383 -1.29663,3.34107 -0.47832,1.18811 -0.95664,2.37622 -1.44946,3.60034 -0.24171,0.60855 -0.48342,1.2171 -0.73245,1.84409 C 314.95551,536.24251 307.3298,553.29752 298,569 c -4.76173,-0.50319 -9.2249,-1.22796 -13.83398,-2.51367 C 273.59963,563.11635 273.59963,563.11635 263,564 c -2.9489,3.08392 -4.91227,6.50205 -6.95703,10.22852 -1.09623,1.86195 -2.30784,3.56014 -3.60547,5.2871 -0.42652,0.57211 -0.85304,1.14421 -1.29248,1.73365 -1.21519,1.61535 -2.43393,3.22802 -3.65283,4.84057 -1.77482,2.74847 -1.77482,2.74847 -1.07422,5.41016 2.01458,3.18354 4.41511,5.86301 7.01953,8.5625 7.18499,7.56265 7.18499,7.56265 8.5625,9.9375 -0.71418,4.33849 -3.07469,7.77145 -5.375,11.4375 -0.44336,0.70721 -0.88671,1.41442 -1.34351,2.14307 C 250.77578,630.60138 245.57089,636.81012 240,643 c -0.81984,0.91781 -1.63969,1.83563 -2.48438,2.78125 -1.50437,1.67602 -3.01441,3.34697 -4.53125,5.01172 -1.73414,1.92873 -3.3969,3.89416 -5.04687,5.89453 -2.66235,3.13777 -5.63745,5.7428 -8.76953,8.40234 C 215.25912,668.53386 211.64408,672.28 208,676 c -4.13106,-1.40426 -6.93496,-3.37166 -10.25,-6.1875 -0.95777,-0.79535 -1.91555,-1.5907 -2.90234,-2.41016 -1.79562,-1.51481 -3.58102,-3.04189 -5.35157,-4.58593 -0.76183,-0.64067 -1.52367,-1.28133 -2.30859,-1.94141 -0.66645,-0.58008 -1.33289,-1.16016 -2.01953,-1.75781 C 182.01115,657.49043 180.37149,657.98605 177,659 c -2.34726,1.36708 -4.48722,2.74288 -6.6875,4.3125 -1.32531,0.91366 -2.65221,1.82501 -3.98047,2.73437 -0.70044,0.48147 -1.40089,0.96293 -2.12256,1.45899 -3.84951,2.60321 -7.77759,5.08028 -11.70947,7.55664 -1.19424,0.75458 -1.19424,0.75458 -2.4126,1.52441 -3.82536,2.40577 -7.66764,4.77348 -11.56006,7.06934 -0.69222,0.40855 -1.38445,0.8171 -2.09765,1.23804 -1.29171,0.75745 -2.58709,1.50867 -3.88672,2.25244 C 129.5327,688.90568 127.9743,690.03855 126,693 c -0.28261,3.22091 -0.28261,3.22091 -0.1875,6.875 0.01,0.98625 0.01,0.98625 0.0195,1.99243 0.0983,6.39831 0.56645,12.76294 1.16797,19.13257 -8.48634,6.49855 -18.30691,10.65267 -28,15 -0.80792,0.364 -1.61584,0.728 -2.448242,1.10303 -2.301189,1.02636 -4.61093,2.02915 -6.926758,3.02197 -0.694805,0.30736 -1.389609,0.61472 -2.105469,0.9314 -2.802138,1.16928 -5.143416,1.94525 -8.195312,1.93188 -3.213723,-1.36651 -4.852621,-3.29482 -7.136719,-5.92578 -0.861094,-0.98871 -1.722188,-1.97742 -2.609375,-2.99609 C 68.716477,733.04619 67.857061,732.02408 67,731 66.211094,730.06027 65.422188,729.12055 64.609375,728.15234 59.169805,721.50942 59.169805,721.50942 58,718 c -6.840381,0.39754 -13.278571,1.37507 -19.914063,3.07812 -3.346781,0.81527 -6.702883,1.33714 -10.109375,1.84375 -1.074191,0.17757 -2.148383,0.35514 -3.255126,0.53809 -2.159105,0.35506 -4.324882,0.67203 -6.495606,0.94727 C 15.136293,724.94574 12.754161,725.49227 10,727 c -2.272147,3.4631 -3.1390149,6.97982 -4,11 -0.2072974,0.80035 -0.4145947,1.60069 -0.6281738,2.42529 C 4.8210816,742.58797 4.336945,744.75431 3.875,746.9375 1.8002281,756.61691 1.8002281,756.61691 0,759 c -2.9790039,0.60498 -2.9790039,0.60498 -6.8515625,0.74219 -0.7049258,0.0285 -1.4098517,0.057 -2.1361389,0.0864 C -11.325242,759.9124 -13.661297,759.96107 -16,760 c -1.196109,0.0218 -1.196109,0.0218 -2.416382,0.0441 -5.106636,0.0812 -10.211766,0.0986 -15.31897,0.0863 -2.629941,-0.005 -5.259711,-2e-5 -7.889648,0.006 -11.157235,0.004 -22.242943,-0.39391 -33.375,-1.13672 -1.69418,-4.38906 -3.291548,-8.63506 -4.316406,-13.23438 -0.310342,-1.35544 -0.310342,-1.35544 -0.626953,-2.73828 -0.204317,-0.91652 -0.408633,-1.83304 -0.619141,-2.77734 -0.413248,-1.85002 -0.831049,-3.69903 -1.253906,-5.54688 -0.179905,-0.80791 -0.35981,-1.61583 -0.545166,-2.44824 C -83.038222,729.865 -83.559788,728.03609 -85,726 c -2.423479,-0.87407 -2.423479,-0.87407 -5.3125,-1.16016 -1.076367,-0.15404 -2.152734,-0.30808 -3.261719,-0.46679 -1.130508,-0.14373 -2.261015,-0.28746 -3.425781,-0.43555 -7.15796,-0.96083 -13.94827,-2.06176 -20.8335,-4.27124 -2.81098,-0.86446 -5.55739,-1.34998 -8.479,-1.66626 -0.96551,-0.12375 -1.93102,-0.2475 -2.92578,-0.375 -6.28586,0.85353 -10.58092,8.69763 -14.38672,13.4375 -0.57234,0.70705 -1.14469,1.4141 -1.73437,2.14258 -2.6046,3.22546 -5.16607,6.46809 -7.64063,9.79492 -5.33463,-0.53243 -9.71086,-1.91293 -14.58594,-4.16797 -0.70122,-0.31729 -1.40244,-0.63459 -2.12491,-0.9615 -1.47599,-0.67062 -2.94996,-1.34572 -4.42196,-2.02507 -2.2236,-1.0244 -4.45478,-2.03058 -6.6875,-3.03491 C -198.59262,724.74823 -198.59262,724.74823 -202,721 c -0.56661,-3.36276 -0.61082,-4.98326 -0.0625,-8.1875 0.17111,-1.50891 0.34038,-3.01802 0.50781,-4.52734 0.097,-0.73074 0.19401,-1.46148 0.29395,-2.21436 0.34937,-2.77469 0.50479,-5.52583 0.57324,-8.3208 0.0374,-0.80953 0.0748,-1.61906 0.11328,-2.45313 -0.6331,-3.41527 -1.95777,-4.84802 -4.42578,-7.29687 -2.75136,-1.76588 -5.64745,-3.21225 -8.5625,-4.6875 -10.31331,-5.40679 -19.84825,-11.76746 -29.4104,-18.38159 -0.5622,-0.38459 -1.12441,-0.76918 -1.70364,-1.16542 -1.53614,-1.05141 -3.06566,-2.11248 -4.5947,-3.17418 -2.7111,-1.58101 -4.61183,-2.35 -7.72876,-2.59131 -2.25489,1.22759 -4.00346,2.42373 -6,4 -0.71382,0.54334 -1.42764,1.08668 -2.16309,1.64648 -2.41784,1.85065 -4.81654,3.7239 -7.21191,5.60352 -0.83145,0.64969 -1.66289,1.29938 -2.51953,1.96875 -2.03665,1.59186 -4.07175,3.18565 -6.10547,4.78125 -14.36781,-6.54112 -27.61742,-23.75276 -37,-36 -1.06065,-1.3559 -2.12189,-2.71133 -3.18359,-4.06641 C -336.06865,616.83266 -336.06865,616.83266 -338,612 c 1.03778,-3.8481 4.07268,-6.23913 6.875,-8.9375 1.72734,-1.66804 3.43628,-3.35537 5.125,-5.0625 0.78633,-0.78504 1.57266,-1.57008 2.38281,-2.37891 1.7216,-2.79032 2.10018,-4.3074 1.40088,-7.52002 -1.83083,-4.90845 -4.72726,-9.18561 -7.59619,-13.53857 -0.91556,-1.52657 -0.91556,-1.52657 -1.84961,-3.08398 -3.52111,-5.4477 -3.52111,-5.4477 -9.13574,-8.22315 -6.92356,-0.16463 -13.67258,1.46559 -20.32715,3.24463 -1.83553,0.47032 -3.67145,0.93915 -5.50781,1.40625 -0.79294,0.20947 -1.58587,0.41895 -2.40283,0.63477 C -371,569 -371,569 -373,569 c -8.3012,-14.27264 -16.43987,-28.40409 -22,-44 -0.61546,-1.61834 -1.2342,-3.23544 -1.85547,-4.85156 -0.65265,-1.71603 -1.305,-3.43218 -1.95703,-5.14844 -0.31469,-0.81388 -0.62938,-1.62776 -0.95361,-2.46631 C -401.24796,508.5758 -402.44234,505.30193 -402,501 c 0.65484,-0.35191 1.30969,-0.70383 1.98438,-1.06641 12.2336,-5.95534 12.2336,-5.95534 23.01562,-13.93359 0.77127,-4.64765 0.12609,-9.05403 -1.35937,-13.48047 -1.92984,-6.18623 -3.06638,-12.45976 -4.20313,-18.83203 -0.20818,-1.13373 -0.41637,-2.26746 -0.63086,-3.43555 -0.2056,-1.13115 -0.41121,-2.2623 -0.62305,-3.42773 -0.30575,-1.67764 -0.30575,-1.67764 -0.61767,-3.38916 -0.38929,-2.36294 -0.71495,-4.73696 -0.98731,-7.11621 -0.20713,-1.75691 -0.20713,-1.75691 -0.41845,-3.54932 -0.10563,-1.05985 -0.21125,-2.1197 -0.32007,-3.21167 -0.58888,-2.73033 -0.58888,-2.73033 -3.02661,-3.8789 -3.02996,-0.7312 -5.87891,-1.09727 -8.98926,-1.31177 -1.15693,-0.0838 -2.31387,-0.16758 -3.50586,-0.25391 -1.19818,-0.0786 -2.39637,-0.15726 -3.63086,-0.23828 -1.82628,-0.12955 -1.82628,-0.12955 -3.68945,-0.26172 -2.99892,-0.21169 -5.99816,-0.41585 -8.99805,-0.61328 -0.31466,-1.83296 -0.6266,-3.66639 -0.9375,-5.5 -0.17402,-1.02094 -0.34805,-2.04188 -0.52734,-3.09375 -1.14502,-7.28801 -1.6941,-14.2465 -1.70313,-21.61719 -0.003,-0.96701 -0.007,-1.93401 -0.0101,-2.93033 -0.005,-2.04226 -0.007,-4.08453 -0.007,-6.1268 -0.002,-3.06313 -0.0203,-6.12589 -0.0393,-9.18896 -0.0331,-11.98978 0.57716,-23.66453 2.22461,-35.54297 0.86279,-0.0449 1.72557,-0.0897 2.6145,-0.13599 3.20437,-0.17335 6.40769,-0.35927 9.61084,-0.55371 1.38578,-0.0815 2.77187,-0.15807 4.1582,-0.22949 1.99398,-0.10359 3.98691,-0.22672 5.97974,-0.35034 1.19923,-0.0681 2.39846,-0.13616 3.63403,-0.2063 2.94721,-0.30542 2.94721,-0.30542 4.85767,-1.76685 1.45398,-2.23149 1.75546,-3.96416 2.10205,-6.60498 0.14019,-0.98581 0.28037,-1.97162 0.42481,-2.9873 0.14212,-1.06509 0.28423,-2.13018 0.43066,-3.22754 1.54347,-10.6603 3.68491,-21.06176 6.25708,-31.51978 0.25032,-1.02988 0.50064,-2.05976 0.75855,-3.12085 0.2259,-0.90395 0.45181,-1.80791 0.68457,-2.73925 0.50541,-2.65269 0.77685,-4.86871 0.4873,-7.55762 -4.03696,-5.3854 -11.29912,-8.90193 -16.9375,-12.375 -1.31194,-0.81791 -1.31194,-0.81791 -2.65039,-1.65234 -2.13418,-1.32949 -4.27151,-2.65355 -6.41211,-3.97266 5.06817,-23.55928 15.62789,-47.94183 29,-68 7.02006,0.76179 13.53338,2.83661 20.26172,4.91602 7.26092,2.27369 7.26092,2.27369 14.73828,2.08398 2.30218,-1.98814 3.85372,-4.3344 5.5,-6.875 0.46632,-0.68167 0.93264,-1.36334 1.41309,-2.06567 0.9368,-1.37111 1.86502,-2.74811 2.78418,-4.13111 2.28753,-3.38585 4.79825,-6.61378 7.25586,-9.87744 1.1999,-1.95472 1.1999,-1.95472 1.01562,-3.98828 -1.40114,-2.98308 -3.44605,-4.99807 -5.71875,-7.375 -7.64697,-8.19952 -7.64697,-8.19952 -10.25,-12.6875 0.23874,-4.86011 2.88617,-8.51861 5.4375,-12.5 0.44158,-0.69835 0.88317,-1.3967 1.33813,-2.11621 4.35426,-6.77893 9.20643,-13.08604 14.22437,-19.38379 0.82178,-1.16789 0.82178,-1.16789 1.66016,-2.35937 0.44214,-0.54141 0.88429,-1.08282 1.33984,-1.64063 0.66,0 1.32,0 2,0 0.23074,-0.55816 0.46148,-1.11633 0.69922,-1.69141 1.64612,-2.92148 3.71151,-4.90914 6.11328,-7.24609 0.85207,-0.83402 1.70414,-1.66805 2.58203,-2.52734 0.85981,-0.83661 1.71961,-1.67321 2.60547,-2.53516 1.66931,-1.664015 3.3359,-3.330775 5,-5 0.96468,-0.965009 1.92953,-1.929848 2.89453,-2.894531 0.48018,-0.480176 0.96035,-0.960352 1.45508,-1.455078 2.2168,-2.216797 4.43359,-4.433594 6.65039,-6.650391 4.91467,1.517901 8.0584,4.392941 11.8125,7.75 1.24359,1.083416 2.48837,2.16546 3.73438,3.246094 0.5949,0.518042 1.1898,1.036084 1.80273,1.569824 2.04802,1.779593 4.10159,3.542232 6.21289,5.246582 0.55816,0.4602 1.11633,0.92039 1.69141,1.39453 2.5685,1.16646 4.04939,0.54303 6.74609,-0.20703 2.69882,-1.46489 2.69882,-1.46489 5.4375,-3.359375 1.57576,-1.046558 1.57576,-1.046558 3.18335,-2.114258 1.12648,-0.75865 2.25286,-1.517442 3.37915,-2.276367 2.33162,-1.556638 4.66713,-3.107363 7.00391,-4.65625 0.58624,-0.389317 1.17249,-0.778634 1.7765,-1.179749 6.47385,-4.27904 13.10886,-8.296817 19.80748,-12.213806 0.80502,-0.48372 1.61004,-0.967441 2.43945,-1.46582 0.6986,-0.410244 1.39719,-0.820488 2.11695,-1.243164 2.4351,-1.956796 3.56207,-3.639222 4.85571,-6.491211 0.32121,-3.387485 0.32121,-3.387485 0.0742,-7.050781 -0.0264,-0.658807 -0.0529,-1.317613 -0.0801,-1.996384 -0.0873,-2.089419 -0.19658,-4.177002 -0.30659,-6.265335 -0.0633,-1.422462 -0.12517,-2.844989 -0.18555,-4.267578 C -201.64863,44.945703 -201.81899,41.472782 -202,38 c 6.2468,-3.86734 12.52603,-7.4013 19.1875,-10.5 0.81227,-0.380193 1.62454,-0.760386 2.46143,-1.1521 C -157.91256,15.949617 -157.91256,15.949617 -153,17 c 1.80029,1.877096 3.16468,3.570788 4.625,5.6875 0.8729,1.186445 1.74797,2.371292 2.625,3.554687 0.44988,0.61585 0.89977,1.2317 1.36328,1.866211 2.28282,3.11396 4.61013,6.180806 7.01172,9.204102 0.41846,0.568718 0.83692,1.137437 1.26807,1.723389 2.43208,3.018381 3.82957,3.922673 7.68896,4.499267 5.61347,-0.423322 11.05262,-1.993981 16.48047,-3.410156 9.29898,-2.339907 18.387248,-4.224326 27.9375,-5.125 0.105461,-0.543018 0.210923,-1.086035 0.31958,-1.645508 C -78.076636,4.6149533 -78.076636,4.6149533 -75,0 c 2.858664,-0.41517183 5.499314,-0.61131199 8.375,-0.6875 0.89759,-0.03271 1.795181,-0.0654199 2.719971,-0.0991211 C -42.671021,-1.4443655 -21.185181,-1.7344592 0,0 Z"
     fill="#26292c"
     id="path2"
     transform="translate(550,133)"
     sodipodi:insensitive="true" />
  <path
     d="m 0,0 c 8.91,0 17.82,0 27,0 3.374285,8.9980923 3.374285,8.9980923 4.255127,12.614014 0.200635,0.812527 0.401271,1.625054 0.607986,2.462204 0.206306,0.855278 0.412611,1.710555 0.625168,2.591751 0.225682,0.915501 0.451363,1.831002 0.683884,2.774246 0.718021,2.913994 1.429846,5.829446 2.140335,8.745285 2.980379,12.215706 6.072336,24.365378 9.582687,36.440613 2.138626,7.388802 3.990402,14.815563 5.729813,22.309387 1.939023,8.309447 4.042064,16.52654 6.424316,24.72046 1.404543,4.93754 2.616099,9.91638 3.825684,14.90454 1.845686,7.50973 3.810055,14.95866 6,22.375 3.091787,10.51228 5.633813,21.15191 8.145996,31.81421 1.615727,6.8265 3.329276,13.60486 5.244629,20.35376 3.598917,12.72515 6.710253,25.57872 9.897854,38.41152 0.88661,3.56662 1.77637,7.13245 2.665867,10.69834 2.857276,11.45757 5.707274,22.91694 8.553634,34.37723 0.89815,3.61468 1.79792,7.22896 2.69798,10.84317 0.58075,2.33554 1.1586,4.67179 1.73618,7.00812 2.00896,8.09183 4.15176,16.13519 6.40481,24.16253 1.72212,6.14705 3.31953,12.31861 4.84055,18.51862 0.50359,2.04435 1.0075,4.08862 1.51172,6.13281 0.24025,0.97486 0.4805,1.94971 0.72803,2.9541 0.63492,2.53703 1.29354,5.06583 1.96728,7.59278 0.18877,0.71784 0.37754,1.43569 0.57202,2.17529 0.49185,1.86251 0.99271,3.72263 1.49439,5.58252 1.86038,9.63022 1.86038,9.63022 -0.79688,13.64453 -0.63164,0.52981 -1.26328,1.05961 -1.91406,1.60547 -2.37917,2.06097 -3.84211,3.51316 -5.625,6.1875 -0.66,0 -1.32,0 -2,0 0,0.66 0,1.32 0,2 -1.39844,1.41016 -1.39844,1.41016 -3.375,3.0625 -3.21597,2.72425 -6.34314,5.51334 -9.4375,8.375 C 86.265142,418 86.265142,418 82,418 78.062808,404.46714 74.664019,390.80589 71.299072,377.12207 c -1.666517,-6.75394 -3.367669,-13.48004 -5.310791,-20.16113 -2.107656,-7.2513 -3.934437,-14.5578 -5.708008,-21.89649 -0.538488,-2.22337 -1.085001,-4.44468 -1.631836,-6.66601 -0.346835,-1.42697 -0.693207,-2.85405 -1.039062,-4.28125 -0.309697,-1.27247 -0.619395,-2.54493 -0.938477,-3.85596 C 56,317 56,317 56,313 c -32.34,0 -64.68,0 -98,0 0,-15.51 0,-31.02 0,-47 28.05,0 56.1,0 85,0 -4.537566,-19.83187 -4.537566,-19.83187 -9.367188,-39.58594 -0.592347,-2.34988 -1.184459,-4.69981 -1.776367,-7.0498 -0.453367,-1.79577 -0.453367,-1.79577 -0.915893,-3.62781 -1.491143,-5.92374 -2.963375,-11.85216 -4.436714,-17.78034 -1.024031,-4.11828 -2.050839,-8.23587 -3.077298,-12.35354 -0.867206,-3.47936 -1.733505,-6.95894 -2.597927,-10.439 C 15.912865,155.31952 15.912865,155.31952 10.567017,135.58809 9.0155326,130.11164 7.6426437,124.61067 6.375,119.0625 5.1494311,113.74204 3.8706542,108.45078 2.4243164,103.1853 2.0230504,101.72205 2.0230504,101.72205 1.613678,100.22923 1.4111642,99.493586 1.2086505,98.757939 1,98 c -0.17681808,0.711714 -0.35363617,1.423427 -0.53581238,2.15671 -1.68833852,6.79387 -3.37909592,13.58713 -5.07239822,20.37976 -0.8699119,3.48997 -1.7389713,6.98014 -2.6059007,10.47085 -6.5992487,26.56753 -6.5992487,26.56753 -9.8998867,38.15818 -3.345114,11.86357 -6.177026,23.87035 -9.136002,35.8345 -1.252349,5.06321 -2.508143,10.12556 -3.765625,15.1875 -0.285386,1.15814 -0.570773,2.31628 -0.864807,3.50952 -0.264077,1.06291 -0.528153,2.12583 -0.800232,3.22095 -0.231407,0.9361 -0.462814,1.8722 -0.701233,2.83667 C -33,232 -33,232 -34,234 c -2.64,0 -5.28,0 -8,0 -0.164415,-8.71215 -0.287667,-17.42373 -0.362685,-26.13711 -0.03606,-4.04894 -0.08471,-8.0968 -0.165391,-12.14512 -0.364847,-18.81579 0.142798,-35.34131 6.661224,-53.26526 1.266398,-3.58291 2.246629,-7.2222 3.20279,-10.89782 0.337412,-1.26175 0.674824,-2.5235 1.02246,-3.82349 0.335479,-1.27255 0.670957,-2.54509 1.016602,-3.8562 0.274147,-1.03621 0.274147,-1.03621 0.553833,-2.09335 4.35517,-16.49636 8.25279,-33.099579 12.122437,-49.715244 1.381997,-5.931336 2.794242,-11.855389 4.209716,-17.778808 0.187156,-0.783267 0.374312,-1.566534 0.567139,-2.373536 0.187559,-0.784716 0.375117,-1.569433 0.568359,-2.377929 0.679938,-2.857277 1.352588,-5.716231 2.025391,-8.575196 C -7.3305877,27.22079 -3.7836301,13.603051 0,0 Z"
     fill="#fbfcfc"
     id="path3"
     transform="translate(582,292)"
     sodipodi:insensitive="true" />
  <path
     d="m 0,0 c 2.3171673,-0.00978844 4.6334761,-0.04093215 6.9504394,-0.07226562 1.4889272,-0.0065246 2.9778605,-0.01177717 4.4667966,-0.015625 0.684508,-0.01234681 1.369015,-0.02469361 2.074265,-0.03741456 9.830278,0.04530328 15.80159,6.55627268 22.355423,13.08038318 1.402344,1.535156 1.402344,1.535156 3.277344,4.285156 -0.373825,4.687187 -3.848247,7.310364 -6.9375,10.539063 -2.064674,2.46353 -2.994882,4.597904 -4.25,7.523437 -1.363282,2.25 -1.363282,2.25 -3.8125,3.9375 -6.904717,1.155895 -14.054872,0.541287 -21.0000004,0 1.8226573,-3.956667 4.4116722,-6.674983 7.5000004,-9.6875 0.498867,-0.498222 0.997734,-0.996445 1.511718,-1.509765 3.706624,-3.661906 3.706624,-3.661906 5.988282,-4.802735 -43.119782,-1.072494 -85.836517,7.914751 -124.683108,26.874512 -2.35508,1.144039 -4.72653,2.247269 -7.10205,3.348145 -9.83732,4.644663 -19.09842,10.002297 -28.27734,15.839843 -1.02247,0.648479 -2.04494,1.296958 -3.09839,1.965088 -7.01651,4.550305 -13.44346,9.594532 -19.83911,14.972412 -1.80995,1.461501 -3.62216,2.92021 -5.4375,4.375 -37.68563,30.959866 -63.80108,71.106616 -80.5625,116.624996 -0.41508,1.10473 -0.83016,2.20946 -1.25781,3.34766 -3.2064,8.97537 -4.90716,18.32103 -6.74219,27.65234 0.655,0.12287 1.31001,0.24573 1.98486,0.37232 5.64975,1.06844 11.14651,2.43709 16.66748,4.04175 2.4295,0.70701 2.4295,0.70701 5.34766,0.58593 0.33209,-0.71019 0.66419,-1.42038 1.00635,-2.1521 1.5321,-3.26535 3.07528,-6.52535 4.61865,-9.7854 0.52207,-1.11697 1.04414,-2.23394 1.58203,-3.38476 1.54629,-3.25485 3.14712,-6.47218 4.79297,-9.67774 0.68812,-1.37103 0.68812,-1.37103 1.39013,-2.76977 1.86748,-3.28758 3.22848,-5.68226 6.82618,-7.10938 2.58383,-0.45863 5.03604,-0.62294 7.65869,-0.68335 0.8598,-0.0548 1.71961,-0.10957 2.60547,-0.16601 5.1713,-0.30212 10.34099,-0.31354 15.51953,-0.27149 0,4.95 0,9.9 0,15 -1.14598,-0.0412 -2.29196,-0.0825 -3.47266,-0.125 -4.66997,0.0478 -9.23632,0.11628 -13.52734,2.125 -3.58854,3.89459 -5.02532,9.11861 -6.45264,14.11963 -0.68794,2.36329 -1.59027,4.6145 -2.54736,6.88037 1.20656,-0.14437 2.41312,-0.28875 3.65625,-0.4375 1.61455,-0.18773 3.22914,-0.37522 4.84375,-0.5625 1.18722,-0.14308 1.18722,-0.14308 2.39844,-0.28906 1.17949,-0.13535 1.17949,-0.13535 2.38281,-0.27344 0.7122,-0.0838 1.42441,-0.16757 2.1582,-0.2539 3.5117,-0.25179 7.03983,-0.1836 10.56055,-0.1836 0,5.61 0,11.22 0,17 -3.24804,0.69815 -6.49788,1.38386 -9.75,2.0625 -0.92039,0.19916 -1.84078,0.39832 -2.78906,0.60352 -0.88946,0.18369 -1.77891,0.36738 -2.69532,0.55664 -0.81694,0.17282 -1.63388,0.34563 -2.47558,0.52368 -2.46943,0.27353 -3.98685,0.17854 -6.29004,-0.74634 -2.25,-3.0625 -2.25,-3.0625 -4,-6 -6.60925,5.6373 -10.93312,13.37606 -12,22 1.55461,-0.45052 1.55461,-0.45052 3.14062,-0.91015 1.36965,-0.38463 2.73945,-0.76872 4.10938,-1.15235 0.68191,-0.19916 1.36383,-0.39832 2.0664,-0.60351 6.82032,-1.88718 6.82032,-1.88718 9.6836,-0.33399 1.26562,1.9961 1.26562,1.9961 2.25,4.4375 0.33515,0.80309 0.67031,1.60618 1.01562,2.4336 0.73438,2.1289 0.73438,2.1289 0.73438,4.1289 -2.74919,1.67671 -5.52238,3.24188 -8.37891,4.72657 -2.03814,1.09452 -2.03814,1.09452 -4.62109,3.27343 -0.90122,3.04368 -0.90122,3.04368 0,6 1.82395,1.94027 1.82395,1.94027 4.3125,3.25 0.80051,0.47954 1.60101,0.95907 2.42578,1.45313 0.74637,0.42797 1.49273,0.85594 2.26172,1.29687 0.99,0.66 1.98,1.32 3,2 -0.59924,4.1947 -1.575,8.01 -3,12 -6.48473,-0.7369 -12.6924,-2.35318 -19,-4 1.60549,6.61914 3.92385,12.03371 7.59765,17.77344 1.2779,2.02897 2.37059,4.06432 3.40235,6.22656 2.2478,-2.05233 3.00222,-3.00667 4,-6 8.64031,0.61717 16.6335,2.8205 25,5 0,5.94 0,11.88 0,18 -6.72838,-0.46942 -13.17366,-1.07409 -19.7461,-2.59765 -2.45902,-0.43896 -4.76071,-0.42892 -7.2539,-0.40235 0.23187,0.57968 0.46374,1.15935 0.70263,1.7566 4.64869,11.6217 4.64869,11.6217 9.29737,23.2434 5.61,0.33 11.22,0.66 17,1 0,5.61 0,11.22 0,17 -8.02497,-0.41153 -8.02497,-0.41153 -11.74219,-0.70703 -2.51951,-0.19462 -4.91934,-0.28245 -7.45312,-0.24218 -3.20035,-0.13221 -5.01381,-0.44459 -7.80469,-2.05079 -3.80596,-4.96429 -6.37799,-10.34605 -9,-16 -0.66633,-1.36082 -1.3355,-2.72025 -2.00781,-4.07812 -3.1679,-6.50775 -5.8027,-13.02762 -7.99219,-19.92188 -0.65597,0.15147 -1.31195,0.30293 -1.9878,0.45899 -2.96189,0.68258 -5.92453,1.36184 -8.8872,2.04101 -1.03254,0.23848 -2.06508,0.47696 -3.12891,0.72266 -1.4792,0.33838 -1.4792,0.33838 -2.98828,0.68359 -0.91121,0.20948 -1.82241,0.41895 -2.76123,0.63477 -2.24658,0.45898 -2.24658,0.45898 -4.24658,0.45898 6.82524,29.51629 6.82524,29.51629 17.85937,57.64844 0.87435,1.8026 1.67477,3.64121 2.44141,5.49219 8.39237,19.70912 20.75497,37.69848 34.69922,53.85937 0.64582,0.75668 1.29164,1.51336 1.95703,2.29297 11.52802,13.15914 23.93457,25.34941 38.04297,35.70703 1.43086,1.07122 1.43086,1.07122 2.89062,2.16407 2.67874,1.98226 5.38485,3.9172 8.10938,5.83593 0.84949,0.60973 1.69898,1.21946 2.57422,1.84766 19.13202,13.29143 40.61055,23.15683 62.425778,31.15234 -0.597349,-2.98067 -1.202682,-5.95937 -1.8125,-8.9375 -0.248467,-1.2462 -0.248467,-1.2462 -0.501954,-2.51757 -1.170437,-5.67552 -2.728967,-11.09074 -4.685546,-16.54493 0.657824,0.27151 1.315649,0.54302 1.993408,0.82276 26.635887,10.94714 52.617552,18.16826 81.006592,23.17724 -8.406887,7.00574 -17.707719,12.82901 -26.931153,18.68311 -2.284116,1.45392 -4.561149,2.91862 -6.838379,4.3833 -1.659951,1.06152 -3.320105,2.12272 -4.980468,3.18359 -0.767557,0.49525 -1.535113,0.99049 -2.325928,1.50074 -2.287004,1.45465 -4.596874,2.85992 -6.924072,4.24926 -1.230733,0.76281 -1.230733,0.76281 -2.486329,1.54102 -4.163343,2.37584 -7.205553,3.97842 -12.02539,2.99414 -1.509488,-0.47074 -3.00621,-0.98414 -4.488281,-1.53516 -0.775533,-0.26055 -1.551065,-0.5211 -2.350098,-0.78955 -2.510803,-0.87105 -4.9857,-1.80934 -7.462402,-2.77295 -0.910884,-0.35223 -1.821768,-0.70447 -2.760254,-1.06738 -48.115044,-18.84748 -95.284244,-47.53147 -127.446774,-88.83887 -2.13107,-2.72372 -4.39494,-5.30013 -6.66797,-7.90625 -16.20621,-19.45248 -28.67394,-42.16743 -39.15918,-65.1101 -0.78013,-1.70112 -1.57283,-3.39652 -2.37696,-5.08643 -3.46163,-7.36778 -6.20239,-14.89703 -8.77636,-22.61597 -0.21622,-0.64747 -0.43244,-1.29494 -0.65521,-1.96203 -2.96387,-8.93624 -5.53276,-17.87681 -7.46979,-27.10047 -0.19981,-0.94383 -0.39961,-1.88767 -0.60547,-2.8601 -1.16761,-6.01803 -1.49258,-11.76681 -1.26953,-17.8899 0.74145,-0.1119 1.4829,-0.22381 2.24682,-0.33911 13.99044,-2.18726 23.08813,-7.49703 32.12818,-18.53589 3.2626,-4.60276 5.00076,-9.76085 6.625,-15.125 0.19594,-0.64066 0.39187,-1.28132 0.59375,-1.9414 2.86954,-14.54086 -1.86327,-27.38101 -9.78125,-39.3711 -8.7252,-8.33741 -19.7702,-13.79547 -31.8125,-14.6875 -0.26087,-7.16137 0.39114,-13.74649 1.875,-20.75 0.21559,-1.01932 0.43119,-2.03865 0.65332,-3.08886 4.6516,-20.75475 11.98374,-41.13911 21.47168,-60.16114 0.36448,-0.7346 0.72896,-1.4692 1.10449,-2.22607 12.11696,-24.17509 27.57131,-46.46965 45.78223,-66.44189 1.88704,-2.082383 3.72386,-4.197066 5.55078,-6.332036 6.66274,-7.612371 13.84633,-14.45101 21.76172,-20.746093 1.80563,-1.453067 3.58226,-2.943305 5.32031,-4.476563 16.55302,-14.517217 35.91787,-25.836304 55.48047,-35.777344 0.80212,-0.407988 1.60424,-0.815976 2.43066,-1.236328 31.80918,-15.990204 65.397705,-25.8120212 100.569338,-30.7636716 0.727595,-0.1105371 1.45519,-0.2210742 2.204834,-0.33496096 C -14.491754,-0.06169578 -7.2313608,0.01848862 0,0 Z"
     fill="#c1c3be"
     transform="translate(496.87573,214.75977)"
     id="path4"
     sodipodi:insensitive="true" />
  <path
     d="m 0,0 c 17.16,0 34.32,0 52,0 0.02506,5.406731 0.05011,10.813462 0.07593,16.384033 0.08332,17.825569 0.171977,35.651108 0.263411,53.476636 0.05533,10.811976 0.108809,21.623956 0.157975,32.435961 0.04285,9.42142 0.08913,18.84282 0.139565,28.26421 0.0266,4.99062 0.05145,9.98124 0.0722,14.9719 0.01957,4.69406 0.04371,9.38806 0.07142,14.08208 0.0094,1.72578 0.01705,3.45157 0.02293,5.17736 0.0083,2.35056 0.02254,4.70101 0.03836,7.05152 0.0065,1.31725 0.0129,2.63449 0.01955,3.99165 -0.0052,3.19034 -0.0052,3.19034 1.138665,6.16465 6.335371,0.0761 12.670624,0.1286 19.006348,0.16479 2.155318,0.0151 4.310605,0.0356 6.46582,0.0615 3.097896,0.0364 6.195386,0.0534 9.293457,0.0667 0.963675,0.0155 1.92735,0.031 2.920227,0.0469 1.350948,3.4e-4 1.350948,3.4e-4 2.729187,6.9e-4 1.185807,0.01 1.185807,0.01 2.395569,0.0202 C 99.598511,181.90138 100.95255,180.92095 103,179 c 1.20233,-3.60698 1.176,-6.92758 1.20532,-10.68433 0.01,-0.78072 0.0198,-1.56144 0.03,-2.36583 0.0316,-2.5809 0.0564,-5.16183 0.0811,-7.74281 0.0206,-1.78934 0.0416,-3.57867 0.063,-5.36799 0.0552,-4.70996 0.10462,-9.41996 0.15285,-14.12999 0.0591,-5.65102 0.12527,-11.30196 0.1903,-16.95291 0.098,-8.58533 0.18685,-17.17071 0.27747,-25.75614 18.15,0 36.3,0 55,0 0.12033,23.47702 0.12033,23.47702 0.14648,33.53906 0.0179,6.84675 0.039,13.69338 0.0798,20.54004 0.0328,5.52431 0.0506,11.0485 0.0583,16.5729 0.006,2.10016 0.0163,4.20032 0.0326,6.30043 0.12794,17.19745 -0.56384,32.64091 -12.86797,45.80929 -14.37925,13.14084 -31.77103,15.38031 -50.38672,15.4414 -1.004864,0.004 -1.004864,0.004 -2.030029,0.009 -3.55103,0.0149 -7.102019,0.0242 -10.653076,0.0285 -3.62269,0.005 -7.244998,0.0294 -10.867569,0.058 -2.8246,0.0189 -5.649113,0.0238 -8.473771,0.0254 -1.970981,0.004 -3.941916,0.0229 -5.912811,0.042 C 43.203915,234.32693 26.978055,231.57008 14.945313,220.24219 4.9421026,208.71238 -0.18237529,196.41387 -0.12025452,181.1033 c -8.5442e-4,-0.77692 -0.001709,-1.55383 -0.002589,-2.35429 -0.001642,-2.59328 0.003846,-5.1865 0.009318,-7.77977 2.8217e-4,-1.86293 1.2355e-4,-3.72586 -4.4251e-4,-5.58879 -2.868e-4,-5.05115 0.005591,-10.10227 0.012574,-15.15341 0.006253,-5.28109 0.0068389,-10.56219 0.0080254,-15.84328 0.0031076,-9.99773 0.01131322,-19.99546 0.02134949,-29.99318 C -0.06084007,93.007341 -0.05534295,81.624106 -0.05032361,70.240868 -0.03987224,46.827238 -0.02153388,23.413623 0,0 Z"
     fill="#fdfdfd"
     transform="translate(338,445)"
     id="path5"
     sodipodi:insensitive="true" />
  <path
     d="m 0,0 c 0,56.76 0,113.52 0,172 -18.15,0 -36.3,0 -55,0 -0.03738,-7.60547 -0.07477,-15.21094 -0.113281,-23.04688 -0.03027,-4.81252 -0.06141,-9.625 -0.0957,-14.4375 -0.05437,-7.6419 -0.105481,-15.28374 -0.137452,-22.92578 -0.02597,-6.15981 -0.06633,-12.319377 -0.11675,-18.479038 -0.01671,-2.35234 -0.0282,-4.704723 -0.03443,-7.057114 -0.0096,-3.289972 -0.0376,-6.579303 -0.07001,-9.869118 0.0014,-0.976797 0.0029,-1.953594 0.0043,-2.959991 -0.01254,-0.897399 -0.02508,-1.794798 -0.038,-2.719391 -0.0069,-1.16699 -0.0069,-1.16699 -0.01397,-2.357555 C -56.111659,65.376747 -57.03615,64.001552 -59,62 c -2.972245,-0.322502 -5.547447,-0.398441 -8.507812,-0.277344 -1.260084,0.03111 -1.260084,0.03111 -2.545624,0.06285 -1.780659,0.04861 -3.561068,0.107279 -5.341095,0.175186 -2.699143,0.100639 -5.397329,0.165324 -8.097656,0.224854 -1.734441,0.05188 -3.468821,0.105848 -5.203125,0.162109 -1.195822,0.02841 -1.195822,0.02841 -2.415802,0.05739 C -96.68362,62.641594 -101.92495,63.582156 -107,66 c -1.2306,2.461208 -1.20577,4.257769 -1.31641,7.007812 -0.0419,0.986133 -0.0838,1.972266 -0.12695,2.988282 -0.0393,1.032539 -0.0786,2.065078 -0.11914,3.128906 -0.0648,1.56041 -0.0648,1.56041 -0.13086,3.152344 -0.10627,2.574081 -0.20831,5.148261 -0.30664,7.722656 -0.58975,0.08451 -1.17949,0.169028 -1.78711,0.256104 -13.15151,1.917719 -26.17559,4.247602 -39.15039,7.118896 -1.0078,0.223013 -1.0078,0.223013 -2.03595,0.450531 -7.17498,1.594164 -14.33687,3.240829 -21.49139,4.924469 -1.16862,0.27409 -2.33724,0.54817 -3.54126,0.83057 -2.16747,0.51112 -4.33347,1.02851 -6.49756,1.55371 -6.15833,1.46116 -12.18138,2.41676 -18.49634,2.86572 1.95714,-7.61282 4.88437,-14.318537 8.5625,-21.25 0.53303,-1.009255 1.06605,-2.018511 1.61523,-3.05835 C -183.31212,67.866984 -172.12858,53.312676 -159,41 c 0.66,0 1.32,0 2,0 0,-0.66 0,-1.32 0,-2 1.85914,-1.637016 3.71251,-3.138386 5.6875,-4.625 0.58725,-0.444404 1.1745,-0.888809 1.77954,-1.34668 23.12792,-17.243339 45.59587,-20.801409 73.40796,-24.40332 2.336676,-0.3053715 4.673346,-0.610792 7.01001,-0.9162598 15.008655,-1.9540493 30.025341,-3.8399937 45.05249,-5.6462402 0.886452,-0.1074554 1.772904,-0.2149109 2.686218,-0.3256226 2.488243,-0.3004971 4.977033,-0.5958584 7.466126,-0.88922115 0.719463,-0.0871376 1.438926,-0.17427521 2.180191,-0.26405334 C -7.7509913,0.12260694 -4.0365392,0 0,0 Z"
     fill="#fcfcfd"
     id="path6"
     transform="translate(498,294)"
     sodipodi:insensitive="true" />
  <path
     d="M 0,0 C 2.2578125,1.2539062 2.2578125,1.2539062 4,3 4.4765416,6.6713842 3.5863817,10.361865 3,14 2.8337109,15.157578 2.6674219,16.315156 2.4960938,17.507812 -6.2830009,71.286669 -36.630527,123.89374 -72.878906,163.66016 c -1.928957,2.12789 -3.811458,4.28705 -5.683594,6.46484 -5.978271,6.84608 -12.516014,12.99781 -19.4375,18.875 -0.837891,0.72703 -1.675781,1.45406 -2.53906,2.20312 C -141.74316,226.39119 -194.26427,250.60353 -248,258 c -1.60802,0.2243 -1.60802,0.2243 -3.24854,0.45312 -13.65962,1.83953 -27.22867,2.83092 -41.00146,2.92188 -1.25498,0.0139 -2.50997,0.0277 -3.80298,0.042 -7.65407,-0.0396 -14.08596,-0.24894 -20.23218,-5.29199 C -329,240.92308 -329,240.92308 -329,237 c 0.60625,0.007 1.2125,0.0133 1.83713,0.0202 6.45951,0.0677 12.91891,0.11216 19.37869,0.1446 2.39295,0.0148 4.78587,0.0351 7.17871,0.0615 23.10451,0.24796 45.6686,-1.57961 68.23291,-6.68921 1.57577,-0.35673 3.15361,-0.70447 4.7334,-1.04297 31.70813,-6.8212 62.6967,-20.50273 89.63916,-38.49414 0.70238,-0.46729 1.40476,-0.93457 2.12842,-1.41602 C -114.5185,175.24186 -94.702312,158.48384 -79,138 c 0.837764,-1.07092 1.676345,-2.1412 2.515625,-3.21094 C -68.278705,124.28304 -60.785396,113.48205 -54,102 c 0.380273,-0.63873 0.760547,-1.27746 1.152344,-1.93555 C -35.815558,71.221572 -24.125996,39.101976 -16.786133,6.480957 -15.705561,3.0707808 -14.134562,1.6456451 -11,0 -7.2163302,-1.2612232 -3.8110531,-1.0240834 0,0 Z"
     fill="#c1c3be"
     transform="translate(812,554)"
     id="path7"
     sodipodi:insensitive="true" />
  <path
     d="M0 0 C0.70350586 0.2357373 1.40701172 0.47147461 2.13183594 0.71435547 C34.87451558 11.7107 66.01411204 28.44175597 93 50 C93.96808594 50.77085937 94.93617188 51.54171875 95.93359375 52.3359375 C101.33282689 56.73281691 106.58137342 61.24778262 111.7109375 65.95703125 C113.2570029 67.33688143 114.84816834 68.66756467 116.4765625 69.94921875 C132.81582828 83.22803382 145.72414039 101.32187227 157.3125 118.6875 C157.69295471 119.25664124 158.07340942 119.82578247 158.46539307 120.41217041 C165.89295171 131.55692196 172.70672919 142.88563959 178.4375 155 C178.90269043 155.9811377 179.36788086 156.96227539 179.84716797 157.97314453 C182.92689287 164.54385866 185.87073812 171.16120767 188.625 177.875 C189.12084595 179.05835938 189.12084595 179.05835938 189.62670898 180.265625 C192.2358383 186.81183759 194.10240972 193.3709657 191.8125 200.25 C190.0072292 204.36929973 187.84018298 207.75342444 184.0625 210.3125 C181.62201915 211.12599362 179.55763839 211.0463493 177 211 C174.82854977 205.80129269 172.83702266 200.56998098 171.03076172 195.23242188 C155.08494201 148.44645459 124.04058171 103.46237649 85 73 C84.37851074 72.50741699 83.75702148 72.01483398 83.11669922 71.50732422 C73.14386579 63.61026243 62.96172352 56.45371472 52 50 C51.37867188 49.62955566 50.75734375 49.25911133 50.1171875 48.87744141 C32.01709991 38.13761433 13.065137 29.35410796 -7 23 C-7.7002832 22.77699219 -8.40056641 22.55398437 -9.12207031 22.32421875 C-12.73741548 21.17938871 -16.36152402 20.06896831 -20 19 C-19.566875 19.90363281 -19.13375 20.80726563 -18.6875 21.73828125 C-18.130625 22.91777344 -17.57375 24.09726563 -17 25.3125 C-16.443125 26.48425781 -15.88625 27.65601563 -15.3125 28.86328125 C-14 32 -14 32 -14 35 C-21.28172525 34.31925048 -28.33935729 33.03321883 -35.5 31.5625 C-36.57636719 31.34529297 -37.65273438 31.12808594 -38.76171875 30.90429688 C-44.85670266 29.66822523 -50.93375407 28.37000302 -57 27 C-51.01666389 13.47996166 -41.37676854 1.12232098 -27.1875 -4.37109375 C-17.77592429 -7.07692177 -8.86295311 -3.07943404 0 0 Z "
     fill="#C1C4BF"
     transform="translate(611,229)"
     id="path8" />
  <path
     d="M 0,0 C 2.8198865,1.2930379 4.9574861,2.6785947 7.2148437,4.8007812 7.8118408,5.3587036 8.4088379,5.916626 9.0239258,6.4914551 9.6554053,7.0923999 10.286885,7.6933447 10.9375,8.3125 c 0.662417,0.6273706 1.324834,1.2547412 2.007324,1.901123 1.365698,1.29831 2.728646,2.599518 4.088867,3.903565 1.237156,1.184621 2.478445,2.364957 3.725586,3.539062 C 58.293438,53.013716 77.188079,99.916551 85,150 c 0.132773,0.78858 0.265547,1.57717 0.402344,2.38965 C 91.988765,191.63066 85.585822,236.89281 69,273 c -2.293855,-3.87237 -3.08732,-8.12392 -4.058594,-12.46484 -0.189819,-0.82916 -0.379639,-1.65831 -0.57521,-2.51259 -0.606054,-2.65229 -1.205007,-5.30611 -1.803696,-7.96007 -0.398614,-1.75076 -0.797698,-3.50141 -1.197266,-5.25195 -0.585176,-2.5643 -1.168972,-5.12887 -1.747711,-7.69463 -0.829443,-3.67697 -1.666282,-7.3503 -2.562347,-11.01167 -1.354716,-5.5869 -2.443018,-10.66184 -2.305176,-16.41675 0.01547,-1.08926 0.03094,-2.17852 0.04687,-3.30078 C 55,203 55,203 55.492187,199.57031 61.17275,156.15236 49.020073,109.30514 23.125,74.035156 17.270437,66.041427 13.400019,59.304885 11.477539,49.405273 10.675369,45.364897 9.7503398,41.351811 8.8493652,37.33252 8.3258978,34.990803 7.8071581,32.648024 7.2932129,30.304199 5.065766,20.148973 2.5942363,10.067014 0,0 Z"
     fill="#c0c2be"
     transform="translate(667,335)"
     id="path9"
     sodipodi:insensitive="true" />
  <path
     d="m 0,0 c 0.390625,1.3671875 0.78125,2.734375 1.171875,4.1015625 0.2505615,0.8765625 0.501123,1.753125 0.7592773,2.65625 0.5480597,1.9190257 1.0952535,3.8382985 1.6416016,5.7578125 1.2191107,4.279504 2.4415846,8.557001 3.7163086,12.820312 C 7.6474219,26.545078 8.0057813,27.754219 8.375,29 8.6921094,30.051875 9.0092188,31.10375 9.3359375,32.1875 9.9780476,34.907025 10.132925,37.218804 10,40 -40.253336,60.764399 -99.62918,65.814324 -151.04297,45.816406 -151.68879,45.546992 -152.33461,45.277578 -153,45 c 0,-0.66 0,-1.32 0,-2 0.82069,-0.292819 0.82069,-0.292819 1.65796,-0.591553 9.82322,-3.537674 19.48833,-7.181686 28.71704,-12.095947 0.66959,-0.355701 1.33917,-0.711401 2.02905,-1.077881 3.28331,-1.799532 6.24265,-3.709181 9.19361,-6.015869 3.30219,-2.408389 5.3491,-2.652594 9.46484,-2.03125 C -89.066411,22.713832 -76.760154,21.846826 -64,20 c 0.684331,-0.09652 1.368662,-0.193037 2.07373,-0.29248 C -41.466436,16.735891 -22.17324,10.533143 -3.873291,0.87792969 -2,0 -2,0 0,0 Z"
     fill="#c3c5c1"
     transform="translate(611,685)"
     id="path10"
     sodipodi:insensitive="true" />
  <path
     d="M 0,0 C 0,0.66 0,1.32 0,2 -0.66,2.33 -1.32,2.66 -2,3 -0.83319702,3.3758423 -0.83319702,3.3758423 0.35717773,3.7592773 23.830675,11.356938 47.232299,19.225262 69,31 c 0.748945,0.40251 1.497891,0.80502 2.269531,1.219727 C 79.75264,36.797967 88.118029,41.431023 96,47 c 0.969375,0.639375 1.93875,1.27875 2.9375,1.9375 4.39626,2.960747 8.7277,6.01272 13.0625,9.0625 -0.79687,3.789062 -0.79687,3.789062 -2.625,5.6875 C 107,65 107,65 103.375,65.4375 102.26125,65.623125 101.1475,65.80875 100,66 98.755702,67.972162 98.755702,67.972162 98,70 97.45811,69.628267 96.916221,69.256533 96.35791,68.873535 71.25373,51.719805 45.093456,37.213142 16,28 15.299717,27.776992 14.599434,27.553984 13.87793,27.324219 10.262585,26.179389 6.638476,25.068968 3,24 3.433125,24.903633 3.86625,25.807266 4.3125,26.738281 4.869375,27.917773 5.42625,29.097266 6,30.3125 6.556875,31.484258 7.11375,32.656016 7.6875,33.863281 9,37 9,37 9,40 1.7182747,39.31925 -5.3393573,38.033219 -12.5,36.5625 -13.576367,36.345293 -14.652734,36.128086 -15.761719,35.904297 -21.856703,34.668225 -27.933754,33.370003 -34,32 -27.787572,17.962302 -18.228085,6.5659207 -3.8125,0.59375 -2,0 -2,0 0,0 Z"
     fill="#c1c4be"
     transform="translate(588,224)"
     id="path11"
     sodipodi:insensitive="true" />
  <path
     d="m 0,0 c 2.3171673,-0.00978844 4.6334761,-0.04093215 6.9504394,-0.07226562 1.4889272,-0.0065246 2.9778605,-0.01177717 4.4667966,-0.015625 0.684508,-0.01234681 1.369015,-0.02469361 2.074265,-0.03741456 4.596666,0.0211839 7.732853,0.94095982 11.632767,3.36553958 0.33,0.66 0.66,1.32 1,2 C 19.695316,5.896775 13.304485,6.3477122 6.8449707,6.5302734 -27.789118,7.5420819 -60.761461,15.133734 -93.406006,26.503662 c -2.469726,0.736572 -2.469726,0.736572 -5.469726,0.736572 0,0.66 0,1.32 0,2 -0.911368,0.305508 -1.822738,0.611016 -2.761718,0.925782 -13.44397,4.686435 -25.97019,11.20934 -38.23438,18.410156 -3.0039,1.664062 -3.0039,1.664062 -5.0039,1.664062 0,0.66 0,1.32 0,2 -0.91781,0.507891 -1.83563,1.015782 -2.78125,1.539063 -6.76172,3.776707 -13.16843,7.603171 -19.21875,12.460937 -1.01192,0.778594 -2.02383,1.557188 -3.06641,2.359375 -19.47491,15.007631 -37.51877,31.056593 -51.74219,51.277341 -0.39316,0.44989 -0.78632,0.89977 -1.1914,1.36328 -0.66,0 -1.32,0 -2,0 -0.24106,0.70641 -0.48211,1.41282 -0.73047,2.14063 -1.4666,3.30323 -3.34794,5.77076 -5.58203,8.60937 -3.16345,4.10804 -5.98172,8.2057 -8.39063,12.80079 -1.29981,2.45477 -2.68318,4.85178 -4.08398,7.25 -4.7835,8.21851 -9.10549,16.62485 -13.21289,25.19921 -0.57492,1.18336 -1.14985,2.36672 -1.74219,3.58594 -10.69626,22.74145 -16.93242,47.57757 -20.25781,72.41406 -2.31,0 -4.62,0 -7,0 -0.26087,-7.16137 0.39114,-13.74649 1.875,-20.75 0.21559,-1.01932 0.43119,-2.03865 0.65332,-3.08886 4.6516,-20.75475 11.98374,-41.13911 21.47168,-60.16114 0.36448,-0.7346 0.72896,-1.4692 1.10449,-2.22607 12.11696,-24.17509 27.57131,-46.46965 45.78223,-66.44189 1.88704,-2.082383 3.72386,-4.197066 5.55078,-6.332036 6.66274,-7.612371 13.84633,-14.45101 21.76172,-20.746093 1.80563,-1.453067 3.58226,-2.943305 5.32031,-4.476563 16.55302,-14.517217 35.91787,-25.836304 55.48047,-35.777344 0.80212,-0.407988 1.60424,-0.815976 2.43066,-1.236328 31.80918,-15.990204 65.397705,-25.8120212 100.569338,-30.7636716 0.727595,-0.1105371 1.45519,-0.2210742 2.204834,-0.33496096 C -14.491754,-0.06169578 -7.2313608,0.01848862 0,0 Z"
     fill="#f4f5f6"
     transform="translate(496.87573,214.75977)"
     id="path12"
     sodipodi:insensitive="true" />
  <path
     d="M 0,0 C 0.66,0 1.32,0 2,0 1.9123175,1.5843317 1.8041267,3.1675357 1.6875,4.75 1.6294922,5.6317187 1.5714844,6.5134375 1.5117187,7.421875 0.92728757,10.366337 -0.14491481,11.684666 -2,14 -2.8080547,15.970733 -2.8080547,15.970733 -3.375,18.0625 -6.9017919,29.203545 -12.687279,39.62146 -18,50 c -0.612949,1.200762 -0.612949,1.200762 -1.238281,2.425781 C -25.588874,64.31871 -33.514842,75.488835 -41.320312,86.460937 -43.130338,88.958209 -43.130338,88.958209 -44,92 c -0.99,0 -1.98,0 -3,0 -0.2475,0.7425 -0.495,1.485 -0.75,2.25 -1.355486,2.982069 -2.95591,4.45591 -5.25,6.75 -0.28875,0.825 -0.5775,1.65 -0.875,2.5 -1.562768,3.47282 -3.959329,4.40946 -7.125,6.5 -1.103132,1.17341 -2.16823,2.38318 -3.203125,3.61719 C -74.605077,125.73659 -86.140514,136.55094 -99,146 c -0.977109,0.73734 -1.95422,1.47469 -2.96094,2.23437 -4.97885,3.70974 -10.04515,7.09547 -15.41015,10.21875 -2.89654,1.70436 -5.72565,3.5012 -8.56641,5.29688 -29.33517,17.94221 -62.11056,29.75459 -96.0625,35.25 -1.35207,0.2243 -1.35207,0.2243 -2.73145,0.45312 -13.56311,2.16488 -26.997,2.83285 -40.70605,2.85938 -0.75194,0.004 -1.50387,0.007 -2.27859,0.0109 -21.87728,0.0563 -21.87728,0.0563 -29.28391,-6.32336 1.28761,-0.0146 2.57522,-0.0292 3.90186,-0.0442 29.31794,-0.3579 58.00393,-0.9148 86.72558,-7.4187 1.57577,-0.35673 3.15361,-0.70447 4.7334,-1.04297 31.70813,-6.8212 62.6967,-20.50273 89.63916,-38.49414 0.70238,-0.46729 1.40476,-0.93457 2.12842,-1.41602 C -88.518505,133.24186 -68.702312,116.48384 -53,96 c 0.837764,-1.070921 1.676345,-2.141204 2.515625,-3.210938 C -42.278705,82.283039 -34.785396,71.482049 -28,60 c 0.380273,-0.63873 0.760547,-1.277461 1.152344,-1.935547 C -16.69312,40.868328 -8.7311351,22.511603 -2.0234375,3.71875 -1,1 -1,1 0,0 Z"
     fill="#f1f2f2"
     transform="translate(786,596)"
     id="path13"
     sodipodi:insensitive="true" />
  <path
     d="m 0,0 c 0.495,1.485 0.495,1.485 1,3 -19.14,0 -38.28,0 -58,0 2.475,8.91 2.475,8.91 5,18 1.095113,4.101827 2.183312,8.203459 3.25,12.3125 0.382852,1.46083 0.382852,1.46083 0.773438,2.951172 C -46.871899,40.504998 -45.860447,44.697767 -45,49 c -13.2,0 -26.4,0 -40,0 0,-15.51 0,-31.02 0,-47 28.05,0 56.1,0 85,0 C 0,1.34 0,0.68 0,0 Z"
     fill="#bdc0bc"
     transform="translate(625,556)"
     id="path14"
     sodipodi:insensitive="true" />
  <path
     d="m 0,0 c 0.33,0 0.66,0 1,0 0.010307,0.76262146 0.020615,1.5252429 0.031235,2.3109741 0.098552,7.236671 0.2011408,14.4732689 0.3081046,21.7098199 0.054834,3.719116 0.1081843,7.438241 0.1579751,11.157429 0.048235,3.598654 0.1005863,7.197228 0.1556263,10.795784 0.029876,2.020323 0.055641,4.040707 0.081297,6.061088 C 1.8560003,59.729658 2.2425265,67.341206 3,75 c 0.66,0 1.32,0 2,0 -1.4482821,9.165648 -3.6709583,18.112842 -5.94116211,27.10083 -0.62767019,2.48676 -1.24889119,4.97507 -1.86938479,7.46362 -0.3974115,1.58408 -0.7951844,3.16807 -1.1933593,4.75196 -0.1854287,0.74262 -0.3708573,1.48525 -0.561905,2.25038 C -5.8844178,121.76884 -5.8844178,121.76884 -7,124 c -2.64,0 -5.28,0 -8,0 -0.164415,-8.71215 -0.287667,-17.42373 -0.362685,-26.137108 -0.03606,-4.048942 -0.08471,-8.0968 -0.165391,-12.145119 -0.364652,-18.806195 0.146092,-35.312715 6.6535948,-53.228271 1.315426,-3.744798 2.3193994,-7.55417 3.308075,-11.395752 0.3413683,-1.289176 0.6831504,-2.578243 1.0253906,-3.867188 C -4.2181055,15.996797 -3.8951953,14.767031 -3.5625,13.5 -3.2092623,12.163989 -2.8557459,10.828052 -2.5019531,9.4921875 -1.6652671,6.3288268 -0.83124667,3.1647934 0,0 Z"
     fill="#bec1bc"
     transform="translate(555,402)"
     id="path15"
     sodipodi:insensitive="true" />
  <path
     d="M 0,0 C 2.5661663,3.8492495 2.5509768,6.4349304 3,11 -47.253336,31.764399 -106.62918,36.814324 -158.04297,16.816406 -158.68879,16.546992 -159.33461,16.277578 -160,16 c 0,-0.66 0,-1.32 0,-2 4.95,-1.65 9.9,-3.3 15,-5 0,0.66 0,1.32 0,2 0.86883,0.193359 1.73766,0.386719 2.63281,0.585938 1.15242,0.26039 2.30485,0.520781 3.49219,0.789062 1.13695,0.255234 2.27391,0.510469 3.44531,0.773438 C -132,14 -132,14 -129.01172,15.035156 -123.19641,16.898167 -117.04838,17.315163 -111,18 c 1.4966,0.17209 1.4966,0.17209 3.02344,0.347656 C -80.597203,20.953467 -52.372296,18.859091 -26,11 c 0.999668,-0.297048 0.999668,-0.297048 2.019531,-0.600098 2.793862,-0.8385849 5.577295,-1.701667 8.351563,-2.603027 C -13.098746,7.0299319 -10.599746,6.4718233 -8,6 -8,5.34 -8,4.68 -8,4 -5.36,3.34 -2.72,2.68 0,2 0,1.34 0,0.68 0,0 Z"
     fill="#9b9f9b"
     transform="translate(618,714)"
     id="path16"
     sodipodi:insensitive="true" />
  <path
     d="m 0,0 c 8.2559148,-0.3492887 15.315131,2.3684027 23,5 0.706406,0.2357373 1.412812,0.4714746 2.140625,0.7143555 C 57.879103,16.714305 89.016326,33.443525 116,55 c 0.96809,0.770859 1.93617,1.541719 2.93359,2.335937 5.39924,4.39688 10.64778,8.911846 15.77735,13.621094 1.54606,1.37985 3.13723,2.710534 4.76562,3.992188 16.33927,13.278815 29.24758,31.372651 40.83594,48.738281 0.38045,0.56914 0.76091,1.13828 1.15289,1.72467 7.53495,11.30588 14.37787,22.78452 20.15961,35.08783 0.4722,0.99886 0.9444,1.99772 1.43091,3.02686 9.24403,19.66058 9.24403,19.66058 8.94409,25.47314 -0.99,-0.33 -1.98,-0.66 -3,-1 -1.10547,-2.41406 -1.10547,-2.41406 -2.1875,-5.625 -2.22092,-6.15863 -4.99759,-11.74351 -8.22144,-17.43604 C 196,160.29682 196,160.29682 196,157 c -0.66,0 -1.32,0 -2,0 -0.4241,-0.88301 -0.8482,-1.76602 -1.28516,-2.67578 -3.42568,-7.03846 -7.04813,-13.70511 -11.42968,-20.21485 C 180,132 180,132 180,130 c -0.66,0 -1.32,0 -2,0 -1.44531,-2.05469 -1.44531,-2.05469 -3.125,-4.875 C 171.31174,119.36784 167.31358,114.20688 163,109 c -0.71156,-0.88559 -1.42313,-1.77117 -2.15625,-2.68359 C 152.21286,95.603766 143.155,85.371358 132.57422,76.550781 132.05473,76.039023 131.53523,75.527266 131,75 c 0,-0.66 0,-1.32 0,-2 -0.78891,-0.338379 -0.78891,-0.338379 -1.59375,-0.683594 -3.24837,-1.777109 -6.03176,-4.065827 -8.90625,-6.378906 -1.25313,-0.995773 -2.50705,-1.990549 -3.76172,-2.984375 -0.94045,-0.7454 -0.94045,-0.7454 -1.8999,-1.505859 C 84.469255,37.539143 49.770984,20.976689 13.1875,9.015625 12.134336,8.6708008 11.081172,8.3259766 9.9960938,7.9707031 8.0753426,7.3483998 6.1510937,6.7367316 4.2226562,6.1386719 2.1307823,5.4793846 0.0620072,4.7474776 -2,4 -2.33,3.34 -2.66,2.68 -3,2 -2.01,2 -1.02,2 0,2 0,1.34 0,0.68 0,0 Z"
     fill="#f4f5f6"
     transform="translate(588,224)"
     id="path17"
     sodipodi:insensitive="true" />
  <path
     d="m 0,0 c 5.8728232,2.1765722 9.2599994,5.3416451 12.3125,10.8125 2.820953,6.171554 2.175065,11.255031 0.25,17.5625 C 8.9933071,37.455632 1.8261438,44.849719 -7,49 c -4.816001,1.774316 -8.882046,2.208896 -14,2 -2.452275,-4.492402 -3.191671,-8.991381 -4,-14 -0.168867,-0.720586 -0.337734,-1.441172 -0.511719,-2.183594 C -25.8125,32.8125 -25.8125,32.8125 -25,29 c 2.566828,-2.05437 5.260918,-3.613563 8.113281,-5.246094 C -7.9994269,18.354185 -4.1990221,9.0872453 0,0 Z"
     fill="#bfc2bc"
     transform="translate(819,435)"
     id="path18"
     sodipodi:insensitive="true" />
  <path
     d="m 0,0 c 5.033116,2.1787969 8.0428153,5.5483179 10.628906,10.332031 2.188562,6.565684 1.23012,11.872005 -1.7265622,17.953125 -2.6968613,4.334832 -6.6125,7.040569 -11.2734376,9.046875 -5.5499943,0.89718 -10.3288762,0.09009 -15.2109372,-2.671875 -5.200438,-3.860587 -7.536591,-9.065766 -8.789063,-15.328125 -0.704184,-5.516107 0.876962,-9.5283768 4,-13.9999998 C -16.258889,-1.6029698 -8.7025145,-2.4516145 0,0 Z"
     fill="#f8fafa"
     transform="translate(212.37109,494.66797)"
     id="path19"
     sodipodi:insensitive="true" />
  <path
     d="m 0,0 c 1.98,0 3.96,0 6,0 0.00423,0.9197527 0.00846,1.8395054 0.012824,2.7871294 0.10321,22.3578756 0.2118332,44.7157196 0.3265152,67.0735396 0.055328,10.811976 0.1088089,21.623956 0.1579751,32.435961 0.042847,9.42142 0.089127,18.84282 0.1395641,28.26421 0.026597,4.99062 0.05145,9.98124 0.072196,14.9719 0.019567,4.69406 0.043711,9.38806 0.071417,14.08208 0.00937,1.72578 0.017045,3.45157 0.022928,5.17736 0.00826,2.35056 0.022539,4.70101 0.038362,7.05152 0.00645,1.31725 0.012905,2.63449 0.019553,3.99165 C 6.8561195,179.02569 6.8561195,179.02569 8,182 c 0.66,0.33 1.32,0.66 2,1 -2.75,-0.125 -2.75,-0.125 -6,-1 -3.7497005,-4.47258 -4.49746866,-7.63723 -4.48101807,-13.40317 -0.003418,-0.72383 -0.006835,-1.44766 -0.0103567,-2.19343 -0.006564,-2.41401 0.0153711,-4.82689 0.0372732,-7.2408 0.001129,-1.73486 4.9397e-4,-3.46971 -0.00177,-5.20456 -0.001147,-4.70214 0.0223568,-9.40388 0.0502958,-14.10592 0.0250195,-4.91672 0.0273561,-9.83345 0.0321016,-14.75022 0.0124282,-9.30721 0.0452476,-18.61423 0.085398,-27.921351 0.0447227,-10.597251 0.066706,-21.19451 0.0867817,-31.791832 C -0.15949376,43.592373 -0.08914476,21.796198 0,0 Z"
     fill="#c7c8c5"
     transform="translate(384,445)"
     id="path20"
     sodipodi:insensitive="true" />
  <path
     d="m 0,0 c 18.15,0 36.3,0 55,0 0.120326,23.477023 0.120326,23.477023 0.146484,33.539062 0.01788,6.846752 0.03897,13.693382 0.07983,20.54004 0.03277,5.524313 0.05057,11.048496 0.05831,16.572898 0.0055,2.100165 0.01628,4.200322 0.03256,6.300431 0.127936,17.197444 -0.563843,32.640909 -12.867971,45.809289 -11.856207,10.8351 -27.170675,15.38371 -43.02709986,15.35181 -1.26077864,-8e-5 -2.52155734,-1.6e-4 -3.82054134,-2.3e-4 -1.3554743,-0.005 -2.7109481,-0.0103 -4.0664216,-0.0156 -1.4024703,-0.002 -2.8049412,-0.003 -4.2074122,-0.004 -3.670953,-0.004 -7.341866,-0.0136 -11.012803,-0.0247 -3.754063,-0.0103 -7.508133,-0.0148 -11.262207,-0.0198 C -42.298195,138.03814 -49.649092,138.0211 -57,138 c 0,-0.33 0,-0.66 0,-1 5.743909,-0.81961 11.401499,-1.08973 17.199219,-1.14063 C -12.986708,135.58914 17.142685,134.53777 38,115 46.596222,104.56173 50.111308,95.45163 50.205322,82.057129 c 0.0099,-0.878698 0.0198,-1.757395 0.03,-2.66272 0.03146,-2.889255 0.05631,-5.778527 0.08109,-8.667847 0.02058,-2.009251 0.04158,-4.018497 0.06297,-6.02774 0.05508,-5.277095 0.10455,-10.554229 0.152848,-15.83139 0.05917,-6.337735 0.125322,-12.6754 0.1903,-19.013077 C 50.820357,20.236279 50.909335,10.618158 51,1 34.17,1 17.34,1 0,1 0,0.67 0,0.34 0,0 Z"
     fill="#c6c8c5"
     transform="translate(443,541)"
     id="path21"
     sodipodi:insensitive="true" />
  <path
     d="m 0,0 c 1.5027534,3.0055068 1.58765,4.6699831 1,8 -2.3486034,2.227472 -5.1471087,3.512886 -8,5 -0.869956,0.46511 -1.7399121,0.93022 -2.6362305,1.409424 -7.2314755,3.760392 -14.4291825,6.478851 -22.2387695,8.778076 -1.136792,0.341682 -2.273584,0.683364 -3.444824,1.0354 -13.523337,4.005948 -26.746,6.92552 -40.89502,6.945069 -1.282765,0.005 -1.282765,0.005 -2.591446,0.01009 -1.797556,0.005 -3.595121,0.0074 -5.392685,0.0072 -2.727453,0.0022 -5.454502,0.02039 -8.181884,0.03931 -1.75716,0.0029 -3.514322,0.0049 -5.271485,0.0059 -1.205105,0.01078 -1.205105,0.01078 -2.434556,0.02177 C -105.61817,31.230266 -110.65236,30.400057 -116,29 c 1.46854,-3.185188 2.86531,-5.411945 5.92578,-7.316406 3.80715,-1.25471 7.60368,-0.485226 11.527345,-0.05469 C -86.912711,22.846137 -75.510817,21.666005 -64,20 c 0.684331,-0.09652 1.368662,-0.193037 2.07373,-0.29248 C -41.466436,16.735891 -22.17324,10.533143 -3.873291,0.87792969 -2,0 -2,0 0,0 Z"
     fill="#f7f8f8"
     transform="translate(611,685)"
     id="path22"
     sodipodi:insensitive="true" />
  <path
     d="M 0,0 C 0.495,0.99 0.495,0.99 1,2 0.67,2.66 0.34,3.32 0,4 -0.99,4 -1.98,4 -3,4 -3.0825,4.53625 -3.165,5.0725 -3.25,5.625 -4.2729381,8.8643039 -6.000337,11.273187 -8,14 c -0.66,0.33 -1.32,0.66 -2,1 -0.61875,1.2375 -0.61875,1.2375 -1.25,2.5 -1.375943,2.751886 -2.756058,5.054032 -4.488281,7.566406 -8.606715,12.802196 -15.624737,26.586698 -20.859375,41.085938 -0.238638,0.641711 -0.477276,1.283423 -0.723145,1.94458 -0.457645,1.282295 -0.872185,2.580693 -1.245117,3.890137 C -39.183594,73.882812 -39.183594,73.882812 -41,77 c -2.922099,1.061737 -4.993925,1.587148 -8,1.9375 -0.724453,0.111504 -1.448906,0.223008 -2.195312,0.337891 C -54.150869,79.714362 -57.010388,80 -60,80 c 1.957138,-7.612822 4.884367,-14.318537 8.5625,-21.25 0.533027,-1.009255 1.066055,-2.018511 1.615234,-3.05835 C -41.312117,39.866984 -30.128576,25.312676 -17,13 c 0.66,0 1.32,0 2,0 0,-0.66 0,-1.32 0,-2 2.090971,-1.7699629 4.182691,-3.4275188 6.375,-5.0625 C -8.0217188,5.4779492 -7.4184375,5.0183984 -6.796875,4.5449219 -2.3300528,1.1650264 -2.3300528,1.1650264 0,0 Z"
     fill="#c0c3be"
     transform="translate(356,322)"
     id="path23"
     sodipodi:insensitive="true" />
  <path
     d="m 0,0 c 4.4644796,2.8145632 8.1759175,5.7152525 9.875,10.8125 0.661686,7.8079 -1.3418465,12.658321 -6.1875,18.75 -8.9987358,7.198989 -17.898836,6.768635 -28.984131,6.540527 C -27.125,35.8125 -27.125,35.8125 -29.125,33.8125 c -0.198939,-2.688606 -0.278353,-5.251052 -0.25,-7.9375 -0.0077,-0.728965 -0.01547,-1.45793 -0.02344,-2.208984 0.01398,-3.811898 0.112178,-5.611627 2.273437,-8.853516 2.526242,-1.329601 5.035206,-2.559337 7.625,-3.75 4.930673,-2.3269452 9.076852,-4.4978265 13,-8.375 C -3.4779051,-0.2086743 -3.4779051,-0.2086743 0,0 Z"
     fill="#bec2bc"
     transform="translate(827.125,496.1875)"
     id="path24"
     sodipodi:insensitive="true" />
  <path
     d="M 0,0 C 2.8198865,1.2930379 4.9574861,2.6785947 7.2148437,4.8007812 7.8118408,5.3587036 8.4088379,5.916626 9.0239258,6.4914551 9.6554053,7.0923999 10.286885,7.6933447 10.9375,8.3125 c 0.662417,0.6273706 1.324834,1.2547412 2.007324,1.901123 1.365698,1.29831 2.728646,2.599518 4.088867,3.903565 1.237156,1.184621 2.478445,2.364957 3.725586,3.539062 26.458173,24.923801 45.785298,58.10944 56.178223,92.78125 0.294792,0.97018 0.589585,1.94036 0.893311,2.93994 C 79.795263,120.23697 80.643486,126.87991 81,134 c -3,-1 -3,-1 -4.011475,-2.8667 -0.293986,-0.80454 -0.587973,-1.60907 -0.890869,-2.43799 -0.495967,-1.33164 -0.495967,-1.33164 -1.001953,-2.69018 -0.511435,-1.42567 -0.511435,-1.42567 -1.033203,-2.88013 -0.357715,-0.96656 -0.71543,-1.93311 -1.083984,-2.92896 C 71.276266,115.58293 69.629246,110.95183 68,106.3125 60.919759,86.764879 51.403573,67.69804 39,51 38.467617,50.267812 37.935234,49.535625 37.386719,48.78125 33.960339,44.126546 30.312199,39.658801 26.636719,35.199219 25,33 25,33 24,30 23.34,30 22.68,30 22,30 20.589844,28.53125 20.589844,28.53125 18.9375,26.5 15.582666,22.540311 11.942541,19.146281 8.015625,15.761719 7.3504687,15.180352 6.6853125,14.598984 6,14 5.4521484,13.54625 4.9042969,13.0925 4.3398437,12.625 2.4716848,10.359245 2.0128176,8.147119 1.3125,5.3125 1.0611328,4.3186328 0.80976562,3.3247656 0.55078125,2.3007813 0.36902344,1.5415234 0.18726563,0.78226562 0,0 Z"
     fill="#f4f5f5"
     transform="translate(667,335)"
     id="path25"
     sodipodi:insensitive="true" />
  <path
     d="M 0,0 C 0.98673706,0.40726318 0.98673706,0.40726318 1.9934082,0.82275391 28.629295,11.769897 54.61096,18.991014 83,24 72.797698,31.839721 60.74765,35.11233 48,34 34.881485,31.788805 24.741173,24.448183 14.61084,16.284668 13.025273,15.020155 11.417597,13.790602 9.8007813,12.566406 8.8146484,11.801992 7.8285156,11.037578 6.8125,10.25 5.9320703,9.5745313 5.0516406,8.8990625 4.1445312,8.203125 1.6322258,5.6221773 0.88375849,3.4560388 0,0 Z"
     fill="#f9fafa"
     transform="translate(402,743)"
     id="path26"
     sodipodi:insensitive="true" />
  <path
     d="M 0,0 C 3.2108207,3.1175845 6.1722569,6.3271684 9.0446777,9.7568359 21.847747,24.987896 35.868846,39.303388 52,51 c 0.950039,0.710273 1.900078,1.420547 2.878906,2.152344 C 57.56073,55.139869 60.270898,57.078041 63,59 c 1.274238,0.91459 1.274238,0.91459 2.574219,1.847656 15.360439,10.671232 32.179559,18.791376 49.386721,25.996094 12.48365,5.300956 12.48365,5.300956 14.25537,8.029297 C 130,97 130,97 130,101 115.69191,96.656474 102.24939,89.844543 89,83 88.205938,82.593945 87.411875,82.187891 86.59375,81.769531 70.203488,73.038565 55.38567,61.643168 41,50 40.132461,49.31293 39.264922,48.625859 38.371094,47.917969 33.647642,44.097187 29.876357,39.651628 26,35 25.2575,34.2575 24.515,33.515 23.75,32.75 16.914863,25.914863 11.024657,18.927607 5.8242187,10.761719 4.0343779,7.9396119 4.0343779,7.9396119 1.7695312,5.3320312 0,3 0,3 0,0 Z"
     fill="#f6f7f7"
     transform="translate(281,679)"
     id="path27"
     sodipodi:insensitive="true" />
  <path
     d="m 0,0 c 1.98,0 3.96,0 6,0 1.4933058,4.1982364 2.5172006,8.2791685 3.296875,12.664063 0.2329981,1.276574 0.4659961,2.553149 0.706055,3.868408 0.121292,0.667784 0.242585,1.335569 0.367553,2.02359 C 14.96932,43.626675 22.239761,68.268629 34,91 c 0.592912,1.35 1.177096,2.703888 1.75,4.0625 4.316961,9.84063 9.837801,19.20014 14.996094,28.61719 1.483174,2.74456 2.889268,5.51522 4.253906,8.32031 -0.66,0 -1.32,0 -2,0 -1.154053,-1.35083 -1.154053,-1.35083 -2.433594,-3.26953 -0.478403,-0.7139 -0.956806,-1.4278 -1.449707,-2.16333 -0.769328,-1.17792 -0.769328,-1.17792 -1.554199,-2.37964 -0.533511,-0.81171 -1.067021,-1.62341 -1.616699,-2.45972 C 36.500139,107.21049 28.351985,92.266226 21.15332,76.514893 20.373194,74.813774 19.58049,73.118375 18.776367,71.428467 15.314722,64.060666 12.574131,56.531394 10,48.8125 9.6756699,47.841791 9.6756699,47.841791 9.3447876,46.851471 6.3723215,37.894668 3.8083996,28.934863 1.875,19.6875 1.6751953,18.735286 1.4753906,17.783071 1.2695312,16.802002 0.16878022,11.108163 -0.17728061,5.7970759 0,0 Z"
     fill="#f6f7f8"
     transform="translate(211,559)"
     id="path28"
     sodipodi:insensitive="true" />
  <path
     d="M 0,0 C 0,0.66 0,1.32 0,2 0.66,2 1.32,2 2,2 1.67,2.99 1.34,3.98 1,5 -1.2746582,6.0114746 -1.2746582,6.0114746 -4.3007812,6.9023437 -5.4127588,7.2333911 -6.5247363,7.5644385 -7.6704102,7.9055176 -8.8722998,8.2460718 -10.074189,8.586626 -11.3125,8.9375 -12.542749,9.2915894 -13.772998,9.6456787 -15.040527,10.010498 -25.286748,12.904372 -35.486015,15.332292 -46,17 c -0.897026,0.148081 -1.794053,0.296162 -2.718262,0.44873 -13.568126,2.166889 -27.00491,2.837226 -40.719238,2.86377 -0.751936,0.0036 -1.503873,0.0072 -2.278595,0.01086 C -113.59337,20.379663 -113.59337,20.379663 -121,14 c 1.28761,-0.01458 2.57522,-0.02917 3.90186,-0.04419 C -78.211512,13.481102 -37.223617,-0.80920907 0,0 Z"
     fill="#f7f9f9"
     transform="translate(610,778)"
     id="path29"
     sodipodi:insensitive="true" />
  <path
     d="m 0,0 c 1.98,0 3.96,0 6,0 0,56.76 0,113.52 0,172 -1.32,0 -2.64,0 -4,0 0.00277,-1.31144 0.00277,-1.31144 0.00559,-2.64937 0.044118,-21.24757 0.07724,-42.49514 0.098038,-63.74275 0.010324,-10.275071 0.024406,-20.550112 0.047255,-30.825165 0.019899,-8.952979 0.032829,-17.905935 0.037298,-26.858936 0.00261,-4.743032 0.00878,-9.486 0.023283,-14.229012 0.013529,-4.460126 0.017772,-8.920162 0.014755,-13.380306 5.522e-4,-1.640748 0.00456,-3.2815 0.012196,-4.92223 0.00989,-2.232733 0.00758,-4.465124 0.0021,-6.6978645 0.00277,-1.8776924 0.00277,-1.8776924 0.00559,-3.7933178 C 2.3032737,1.8734023 2.3032737,1.8734023 0,0 Z"
     fill="#cacccb"
     transform="translate(492,294)"
     id="path30"
     sodipodi:insensitive="true" />
  <path
     d="M 0,0 C 3.6040749,1.897267 5.7509385,4.6264078 8,8 8.6479596,12.34474 8.9789351,16.945045 7.0546875,20.984375 4.5377861,24.181948 1.9622618,26.189537 -2,27 -6.9237756,27.14376 -10.042037,26.774523 -13.9375,23.625 -17.599524,18.964242 -18.546248,16.408762 -18.460937,10.582031 -17.701188,6.3261477 -15.230103,3.7363823 -12,1 -8.2733017,-0.86334915 -4.057509,-0.56630878 0,0 Z"
     fill="#c0c3bf"
     transform="translate(552,184)"
     id="path31"
     sodipodi:insensitive="true" />
  <path
     d="M 0,0 C 3.7626642,1.778714 5.5179646,3.3313703 7.9375,6.6875 9.3484379,11.086306 9.3206834,14.571361 8,19 6.2036517,22.004346 4.1843274,24.407836 1,26 -4.106979,26.584132 -9.3106526,27.166753 -13.5625,23.875 -17.085796,19.719318 -18.266386,16.395779 -17.9375,11 -17.227562,6.4892972 -15.188498,4.188498 -12,1 -8.2850785,-0.85746073 -4.0543611,-0.4421807 0,0 Z"
     fill="#bdc1bd"
     transform="translate(476,814)"
     id="path32"
     sodipodi:insensitive="true" />
  <path
     d="m 0,0 c 21.038238,17.518431 36.547269,39.999261 51,63 0.697383,1.095703 1.394766,2.191406 2.113281,3.320312 C 74.689138,101.64498 74.689138,101.64498 74,115 c -1.485,-0.495 -1.485,-0.495 -3,-1 -1.105469,-2.41406 -1.105469,-2.41406 -2.1875,-5.625 C 66.591577,102.21637 63.814912,96.631485 60.591064,90.938965 58,86.296822 58,86.296822 58,83 57.34,83 56.68,83 56,83 55.575898,82.116992 55.151797,81.233984 54.714844,80.324219 51.289157,73.285758 47.666705,66.619105 43.285156,60.109375 42,58 42,58 42,56 41.34,56 40.68,56 40,56 38.554687,53.945312 38.554687,53.945312 36.875,51.125 33.311744,45.367838 29.313583,40.206881 25,35 24.288437,34.114414 23.576875,33.228828 22.84375,32.316406 16.696741,24.686756 10.338854,17.195059 3.2890625,10.378906 0.68899688,7.6767903 -0.19174014,5.6371694 -1,2 -0.67,1.34 -0.34,0.68 0,0 Z"
     fill="#f0f1f1"
     transform="translate(726,298)"
     id="path33"
     sodipodi:insensitive="true" />
  <path
     d="M 0,0 C 3.2108207,3.1175845 6.1722569,6.3271684 9.0446777,9.7568359 21.848111,24.988329 35.869509,39.301852 52,51 c 0.996445,0.745078 1.992891,1.490156 3.019531,2.257812 C 60.203139,57.101199 65.476289,60.664929 71,64 68.25,67.875 68.25,67.875 66,69 65.261367,68.443125 64.522734,67.88625 63.761719,67.3125 58.602387,63.431529 53.431985,59.578332 48.1875,55.8125 39.747975,49.692326 32.683624,43.020348 26,35 25.2575,34.2575 24.515,33.515 23.75,32.75 16.914863,25.914863 11.024657,18.927607 5.8242187,10.761719 4.0343779,7.9396119 4.0343779,7.9396119 1.7695312,5.3320312 0,3 0,3 0,0 Z"
     fill="#f3f4f5"
     transform="translate(281,679)"
     id="path34"
     sodipodi:insensitive="true" />
  <path
     d="m 0,0 c 0.33,0 0.66,0 1,0 0.4763539,6.5498656 -0.49907483,11.372746 -4,17 -3.226291,3.554096 -7.27038,6.558746 -12.078125,7.335937 C -20.86627,24.440041 -25.2952,23.495287 -30,20 c -3.789539,-3.883572 -5.598493,-7.512739 -6,-13 1.670625,0.495 1.670625,0.495 3.375,1 4.898481,1.0824943 9.691818,1.2592564 14.6875,1.3125 1.132844,0.026103 1.132844,0.026103 2.288574,0.052734 C -10.151646,9.3604552 -5.9780527,8.3863575 -1,6 0.14031566,2.9220242 0.14031566,2.9220242 0,0 Z"
     fill="#c3c6c0"
     transform="translate(223,508)"
     id="path35"
     sodipodi:insensitive="true" />
  <path
     d="M 0,0 C 0.66,0 1.32,0 2,0 1.9123175,1.5843317 1.8041267,3.1675357 1.6875,4.75 1.6004883,6.0725781 1.6004883,6.0725781 1.5117187,7.421875 0.92728757,10.366337 -0.14491481,11.684666 -2,14 -2.8080547,15.970733 -2.8080547,15.970733 -3.375,18.0625 -6.9017919,29.203545 -12.687279,39.62146 -18,50 c -0.408633,0.800508 -0.817266,1.601016 -1.238281,2.425781 C -25.588874,64.31871 -33.514842,75.488835 -41.320312,86.460937 -43.130338,88.958209 -43.130338,88.958209 -44,92 c -0.99,0 -1.98,0 -3,0 -0.2475,0.7425 -0.495,1.485 -0.75,2.25 -1.355486,2.982069 -2.95591,4.45591 -5.25,6.75 -1.254362,2.63223 -1.254362,2.63223 -2,5 -0.99,-0.33 -1.98,-0.66 -3,-1 -0.99,0 -1.98,0 -3,0 0.856582,-0.87785 0.856582,-0.87785 1.730469,-1.77344 C -47.008858,90.244673 -37.07503,75.333544 -28,60 c 0.604248,-1.011028 0.604248,-1.011028 1.220703,-2.04248 C -16.620929,40.824329 -8.7125896,22.459644 -2.0234375,3.71875 -1,1 -1,1 0,0 Z"
     fill="#ecedec"
     transform="translate(786,596)"
     id="path36"
     sodipodi:insensitive="true" />
  <path
     d="M0 0 C1.21236328 0.01353516 1.21236328 0.01353516 2.44921875 0.02734375 C3.37154297 0.04474609 3.37154297 0.04474609 4.3125 0.0625 C3.3125 2.0625 2.3125 4.0625 1.3125 6.0625 C-7.69859406 7.54509454 -16.91622117 7.36242584 -26.02734375 7.4921875 C-33.17383235 7.6706638 -39.09562116 8.20320213 -45.6875 11.0625 C-46.91810421 13.52370841 -46.8932723 15.32026866 -47.00390625 18.0703125 C-47.04580078 19.05644531 -47.08769531 20.04257812 -47.13085938 21.05859375 C-47.17017578 22.09113281 -47.20949219 23.12367188 -47.25 24.1875 C-47.29318359 25.22777344 -47.33636719 26.26804687 -47.38085938 27.33984375 C-47.4871288 29.91392528 -47.58916583 32.48810508 -47.6875 35.0625 C-49.9975 35.0625 -52.3075 35.0625 -54.6875 35.0625 C-55.07470846 28.22181723 -53.87680481 22.53842682 -51.6875 16.0625 C-51.46320313 15.216875 -51.23890625 14.37125 -51.0078125 13.5 C-49.93015091 10.60080423 -49.01902228 9.12351417 -46.6875 7.0625 C-35.07267789 2.61373245 -21.96876154 2.16734267 -9.67016602 1.29614258 C-6.26288716 0.89461988 -3.50248544 -0.05076066 0 0 Z "
     fill="#BFC3BE"
     transform="translate(436.6875,348.9375)"
     id="path37" />
  <path
     d="M0 0 C0.99 0 1.98 0 3 0 C3 32.34 3 64.68 3 98 C2.01 98 1.02 98 0 98 C0 65.66 0 33.32 0 0 Z "
     fill="#C1C3C0"
     transform="translate(495,368)"
     id="path38" />
  <path
     d="M0 0 C1.62527292 2.43790938 2.58098574 4.26441807 3.5859375 6.94921875 C4.02292969 8.09874023 4.02292969 8.09874023 4.46875 9.27148438 C5.06553051 10.86247035 5.66189541 12.4536123 6.2578125 14.04492188 C7.97521953 18.56064782 9.85008049 22.8939964 12.08154297 27.18066406 C13.05592931 29.1107882 13.91008676 31.07058417 14.75 33.0625 C19.06696103 42.90313165 24.58780118 52.26264112 29.74609375 61.6796875 C31.22926847 64.4242538 32.63536194 67.19491065 34 70 C33.34 70 32.68 70 32 70 C30.84594727 68.64916992 30.84594727 68.64916992 29.56640625 66.73046875 C29.08800293 66.01656982 28.60959961 65.3026709 28.11669922 64.56713867 C27.60381348 63.78185791 27.09092773 62.99657715 26.5625 62.1875 C26.02898926 61.37579346 25.49547852 60.56408691 24.94580078 59.7277832 C15.41921462 45.08610979 7.30296243 30.01619741 0.0078125 14.14990234 C-0.88117007 12.25349234 -1.82705381 10.38398038 -2.78125 8.51953125 C-4 6 -4 6 -4 4 C-2.70766393 2.62689293 -1.37562854 1.28965176 0 0 Z "
     fill="#F0F2F2"
     transform="translate(232,621)"
     id="path39" />
  <path
     d="M0 0 C8.58 0 17.16 0 26 0 C26 0.66 26 1.32 26 2 C23.60496313 3.12672175 21.2090129 4.25142558 18.8125 5.375 C17.80219727 5.85066406 17.80219727 5.85066406 16.77148438 6.3359375 C6.49140505 11.15002343 6.49140505 11.15002343 1.1875 11.625 C0.39730469 11.69976563 -0.39289062 11.77453125 -1.20703125 11.8515625 C-1.79871094 11.90054688 -2.39039063 11.94953125 -3 12 C-2.4721307 7.51311093 -1.70509 4.26272499 0 0 Z "
     fill="#BFC1C1"
     transform="translate(560,648)"
     id="path40" />
  <path
     d="M0 0 C12.00150692 11.00138134 21.27508274 34.598336 26 50 C26.11328125 52.8046875 26.11328125 52.8046875 26 55 C24.515 54.505 24.515 54.505 23 54 C21.89453125 51.5859375 21.89453125 51.5859375 20.8125 48.375 C18.59157695 42.21636676 15.81491187 36.63148545 12.59106445 30.93896484 C10 26.29682248 10 26.29682248 10 23 C9.34 23 8.68 23 8 23 C7.51789062 22.02417969 7.03578125 21.04835938 6.5390625 20.04296875 C5.90114842 18.75775951 5.26312169 17.47260618 4.625 16.1875 C4.30789063 15.54490234 3.99078125 14.90230469 3.6640625 14.24023438 C2.23541389 11.36805539 0.78214527 8.6732179 -1 6 C-0.625 2.8125 -0.625 2.8125 0 0 Z "
     fill="#EAECEB"
     transform="translate(774,358)"
     id="path41" />
  <path
     d="M0 0 C3.96 0 7.92 0 12 0 C12.4021875 2.7225 12.4021875 2.7225 12.8125 5.5 C13.4429011 9.37376905 14.189541 12.87191581 15.6875 16.5 C17.01277629 20.03407012 17.09147944 20.6596334 16 24 C2.68587896 8.05763689 2.68587896 8.05763689 0 0 Z "
     fill="#B9BDBD"
     transform="translate(295,636)"
     id="path42" />
  <path
     d="M0 0 C1.32 0.33 2.64 0.66 4 1 C3.35546875 1.59167969 2.7109375 2.18335938 2.046875 2.79296875 C-0.95082085 7.4897403 -0.67306721 11.84677513 -0.75 17.3125 C-0.77964844 18.33923828 -0.80929687 19.36597656 -0.83984375 20.42382812 C-0.91032194 22.94929675 -0.9631266 25.47385415 -1 28 C-3.31 28 -5.62 28 -8 28 C-8.59251191 17.53228966 -5.50955748 8.81964735 0 0 Z "
     fill="#BFC3C1"
     transform="translate(390,356)"
     id="path43" />
  <path
     d="M0 0 C0.66 0 1.32 0 2 0 C2 1.32 2 2.64 2 4 C-18.46 4 -38.92 4 -60 4 C-60 3.67 -60 3.34 -60 3 C-53.22621581 2.14685003 -46.54986051 1.78468364 -39.7265625 1.6484375 C-38.68100189 1.62528473 -37.63544128 1.60213196 -36.55819702 1.57827759 C-34.3648501 1.53094418 -32.17145772 1.48567633 -29.97802734 1.44238281 C-26.61406974 1.37478034 -23.25044069 1.29712418 -19.88671875 1.21875 C-17.75001263 1.17387391 -15.61329413 1.12958228 -13.4765625 1.0859375 C-12.47033844 1.06203949 -11.46411438 1.03814148 -10.42739868 1.01351929 C-9.02981827 0.9882164 -9.02981827 0.9882164 -7.60400391 0.96240234 C-6.78509674 0.94543304 -5.96618958 0.92846375 -5.12246704 0.91098022 C-3 1 -3 1 0 2 C0 1.34 0 0.68 0 0 Z "
     fill="#B5BABA"
     transform="translate(446,675)"
     id="path44" />
  <path
     d="M0 0 C18.15 0 36.3 0 55 0 C55 8.91 55 17.82 55 27 C54.01 27.495 54.01 27.495 53 28 C52 20 52 20 52 1 C34.84 1 17.68 1 0 1 C0 0.67 0 0.34 0 0 Z "
     fill="#A2A7A6"
     transform="translate(443,541)"
     id="path45" />
  <path
     d="M0 0 C3.04651421 3.70417442 5.1168115 7.82689506 7.3125 12.0625 C8.11271533 13.59144216 8.91349727 15.12008789 9.71484375 16.6484375 C10.29854736 17.7636377 10.29854736 17.7636377 10.89404297 18.90136719 C12.3582217 21.67975138 13.86239038 24.43523288 15.375 27.1875 C17.33314982 30.75568412 19.21949853 34.34008031 21 38 C20.34 38 19.68 38 19 38 C17.83007812 36.61743164 17.83007812 36.61743164 16.53125 34.66015625 C16.04688477 33.93425293 15.56251953 33.20834961 15.06347656 32.46044922 C14.5475293 31.66912598 14.03158203 30.87780273 13.5 30.0625 C12.97116211 29.26086426 12.44232422 28.45922852 11.89746094 27.63330078 C6.64120389 19.59163643 1.76993812 11.33683874 -3 3 C-2.01 2.01 -1.02 1.02 0 0 Z "
     fill="#EAECED"
     transform="translate(245,653)"
     id="path46" />
  <path
     d="M0 0 C4.02564518 3.90614551 7.67747592 8.04366585 11.3125 12.3125 C15.9967492 17.7722475 20.76795088 23.05247319 26 28 C25.01 28.33 24.02 28.66 23 29 C22.67 28.01 22.34 27.02 22 26 C20.68 26.33 19.36 26.66 18 27 C16.24717575 24.79385914 14.49769955 22.5851951 12.75 20.375 C12.25886719 19.75753906 11.76773437 19.14007812 11.26171875 18.50390625 C8.3156171 14.77217749 5.60198091 10.97847528 3 7 C2.4225 6.278125 1.845 5.55625 1.25 4.8125 C0 3 0 3 0 0 Z "
     fill="#ECEEEF"
     transform="translate(281,679)"
     id="path47" />
  <path
     d="M0 0 C0.33 0 0.66 0 1 0 C1.33 2.31 1.66 4.62 2 7 C2.33 7 2.66 7 3 7 C2.88112049 12.55025875 2.75683415 18.10036131 2.62768555 23.65039062 C2.58455691 25.53577442 2.54286778 27.42119174 2.50268555 29.30664062 C2.4444442 32.02744624 2.38090932 34.74808648 2.31640625 37.46875 C2.29969376 38.30241089 2.28298126 39.13607178 2.26576233 39.99499512 C2.13946145 45.0623355 1.70815191 49.97993382 1 55 C0.67 55 0.34 55 0 55 C0 36.85 0 18.7 0 0 Z "
     fill="#BEC0BF"
     transform="translate(495,561)"
     id="path48" />
</svg>
